<svg width="907" height="334" viewBox="0 0 907 334" fill="none" xmlns="http://www.w3.org/2000/svg">
<path d="M546.829 65.5028C546.742 64.785 546.475 64.1259 546.072 63.6291C545.669 63.1323 545.152 62.826 544.602 62.7584C543.712 62.571 524.177 60.7914 524.177 60.7914L509.282 41.1869C507.944 39.2199 504.969 39.8007 503.844 40.2128C503.702 40.2128 500.87 41.3836 496.251 43.36C491.753 26.2565 483.797 10.5579 469.791 10.5579H468.596C464.575 3.72026 459.664 0.56369 455.501 0.56369C422.878 0.751024 407.321 54.3096 402.411 81.679L379.609 90.8865C372.613 93.8182 372.35 94.0337 371.425 102.81L352.203 297.946L496.301 333.446L574.399 311.284C574.399 311.097 546.979 67.3761 546.836 65.5215L546.829 65.5028ZM488.259 46.6571C484.629 48.2307 480.431 49.8043 476.047 51.5746V48.0433C476.189 39.2199 475.171 30.434 473.072 22.0415C480.374 23.5214 485.284 34.3118 488.259 46.6571ZM464.276 24.3082C466.66 33.5531 467.834 43.2944 467.535 53.0639V54.8248L442.342 65.1281C447.274 40.8966 456.362 28.9166 464.262 24.4112L464.276 24.3082ZM454.597 12.3844C456.092 12.4313 457.536 13.0401 458.767 14.1454C448.256 20.5896 437.147 36.8502 432.379 69.4087L412.452 77.4453C418.074 52.736 431.19 12.3282 454.583 12.3282L454.597 12.3844Z" fill="#F7B408"/>
<path d="M544.609 62.749C543.719 62.5617 524.184 60.782 524.184 60.782L509.289 41.1775C508.741 40.4282 507.993 40.0161 507.203 40.0067L496.329 333.408L574.428 311.247L546.843 65.6714C546.658 64.1727 545.762 62.9738 544.616 62.7396L544.609 62.749Z" fill="#0099CC"/>
<path d="M44.3295 274H4.27273L49.4034 137.273H100.142L145.273 274H105.216L75.3068 174.926H74.2386L44.3295 274ZM36.8523 220.057H112.159V247.83H36.8523V220.057ZM195.561 137.273V274H158.441V137.273H195.561ZM213.152 274V137.273H272.169C282.317 137.273 291.196 139.12 298.807 142.814C306.418 146.508 312.337 151.827 316.566 158.77C320.794 165.713 322.908 174.036 322.908 183.739C322.908 193.53 320.727 201.786 316.365 208.507C312.048 215.228 305.973 220.302 298.14 223.729C290.351 227.156 281.249 228.869 270.834 228.869H235.584V200.028H263.357C267.719 200.028 271.435 199.494 274.506 198.426C277.622 197.313 280.003 195.555 281.65 193.152C283.341 190.749 284.186 187.611 284.186 183.739C284.186 179.822 283.341 176.64 281.65 174.192C280.003 171.699 277.622 169.875 274.506 168.717C271.435 167.516 267.719 166.915 263.357 166.915H250.272V274H213.152ZM293.266 211.244L327.448 274H287.124L253.743 211.244H293.266ZM449.888 180C449.532 175.549 447.863 172.078 444.881 169.585C441.944 167.093 437.471 165.847 431.462 165.847C427.634 165.847 424.497 166.314 422.049 167.249C419.645 168.139 417.865 169.363 416.708 170.92C415.551 172.478 414.95 174.259 414.905 176.261C414.816 177.908 415.105 179.399 415.773 180.734C416.485 182.025 417.598 183.205 419.111 184.273C420.624 185.296 422.56 186.231 424.919 187.077C427.278 187.922 430.082 188.679 433.331 189.347L444.547 191.75C452.114 193.352 458.589 195.466 463.975 198.092C469.36 200.718 473.766 203.812 477.194 207.372C480.621 210.888 483.135 214.849 484.738 219.256C486.384 223.662 487.23 228.469 487.275 233.676C487.23 242.667 484.982 250.277 480.532 256.509C476.081 262.74 469.716 267.48 461.438 270.729C453.204 273.978 443.301 275.602 431.729 275.602C419.846 275.602 409.475 273.844 400.618 270.328C391.806 266.812 384.952 261.404 380.056 254.105C375.204 246.761 372.757 237.37 372.712 225.932H407.962C408.185 230.116 409.23 233.632 411.1 236.48C412.969 239.329 415.595 241.487 418.978 242.956C422.405 244.425 426.477 245.159 431.195 245.159C435.156 245.159 438.472 244.67 441.142 243.69C443.813 242.711 445.838 241.354 447.218 239.618C448.597 237.882 449.31 235.902 449.354 233.676C449.31 231.584 448.62 229.759 447.284 228.202C445.994 226.599 443.857 225.175 440.875 223.929C437.893 222.638 433.865 221.437 428.792 220.324L415.172 217.386C403.066 214.76 393.519 210.376 386.532 204.234C379.588 198.048 376.139 189.614 376.184 178.932C376.139 170.253 378.453 162.664 383.127 156.166C387.845 149.624 394.365 144.527 402.688 140.878C411.055 137.228 420.647 135.403 431.462 135.403C442.5 135.403 452.047 137.25 460.103 140.945C468.159 144.639 474.367 149.846 478.729 156.567C483.135 163.243 485.361 171.054 485.405 180H449.888ZM501.395 274V137.273H538.514V190.682H587.65V137.273H624.77V274H587.65V220.591H538.514V274H501.395ZM774.849 205.636C774.849 220.858 771.889 233.698 765.97 244.158C760.05 254.572 752.061 262.473 742.002 267.858C731.944 273.199 720.728 275.869 708.355 275.869C695.893 275.869 684.632 273.177 674.574 267.791C664.559 262.361 656.592 254.439 650.673 244.024C644.798 233.565 641.86 220.769 641.86 205.636C641.86 190.415 644.798 177.597 650.673 167.182C656.592 156.723 664.559 148.822 674.574 143.482C684.632 138.096 695.893 135.403 708.355 135.403C720.728 135.403 731.944 138.096 742.002 143.482C752.061 148.822 760.05 156.723 765.97 167.182C771.889 177.597 774.849 190.415 774.849 205.636ZM736.662 205.636C736.662 197.447 735.571 190.548 733.39 184.94C731.254 179.288 728.072 175.015 723.843 172.122C719.66 169.185 714.497 167.716 708.355 167.716C702.213 167.716 697.028 169.185 692.799 172.122C688.616 175.015 685.433 179.288 683.252 184.94C681.116 190.548 680.048 197.447 680.048 205.636C680.048 213.826 681.116 220.747 683.252 226.399C685.433 232.007 688.616 236.28 692.799 239.217C697.028 242.11 702.213 243.557 708.355 243.557C714.497 243.557 719.66 242.11 723.843 239.217C728.072 236.28 731.254 232.007 733.39 226.399C735.571 220.747 736.662 213.826 736.662 205.636ZM792.023 274V137.273H851.04C861.188 137.273 870.067 139.276 877.678 143.281C885.289 147.287 891.209 152.917 895.437 160.172C899.665 167.427 901.779 175.905 901.779 185.608C901.779 195.4 899.598 203.878 895.237 211.044C890.919 218.21 884.844 223.729 877.011 227.601C869.222 231.473 860.12 233.409 849.705 233.409H814.455V204.568H842.228C846.59 204.568 850.306 203.812 853.377 202.298C856.493 200.741 858.874 198.537 860.521 195.689C862.212 192.84 863.058 189.48 863.058 185.608C863.058 181.691 862.212 178.353 860.521 175.594C858.874 172.79 856.493 170.653 853.377 169.185C850.306 167.671 846.59 166.915 842.228 166.915H829.143V274H792.023Z" fill="white"/>
</svg>
