<svg width="733" height="191" viewBox="0 0 733 191" fill="none" xmlns="http://www.w3.org/2000/svg">
<g filter="url(#filter0_d_1_4)">
<path d="M110.552 45.608V146H88.18V133.028C84.2947 137.791 79.4693 141.363 73.704 143.744C68.064 146.125 61.7973 147.316 54.904 147.316C45.128 147.316 36.3547 145.185 28.584 140.924C20.9387 136.663 14.9227 130.647 10.536 122.876C6.27467 115.105 4.144 106.081 4.144 95.804C4.144 85.5267 6.27467 76.5653 10.536 68.92C14.9227 61.1493 20.9387 55.1333 28.584 50.872C36.3547 46.6107 45.128 44.48 54.904 44.48C61.4213 44.48 67.3747 45.608 72.764 47.864C78.2787 50.12 83.0413 53.4413 87.052 57.828V45.608H110.552ZM57.536 127.2C66.184 127.2 73.328 124.317 78.968 118.552C84.608 112.787 87.428 105.204 87.428 95.804C87.428 86.404 84.608 78.8213 78.968 73.056C73.328 67.2907 66.184 64.408 57.536 64.408C48.888 64.408 41.744 67.2907 36.104 73.056C30.5893 78.8213 27.832 86.404 27.832 95.804C27.832 105.204 30.5893 112.787 36.104 118.552C41.744 124.317 48.888 127.2 57.536 127.2ZM141.299 45.608H164.799V146H141.299V45.608ZM153.143 29.064C148.881 29.064 145.309 27.748 142.427 25.116C139.544 22.3587 138.103 18.9747 138.103 14.964C138.103 10.9533 139.544 7.63199 142.427 4.99999C145.309 2.24266 148.881 0.863997 153.143 0.863997C157.404 0.863997 160.976 2.18 163.859 4.81199C166.741 7.31866 168.183 10.5147 168.183 14.4C168.183 18.536 166.741 22.0453 163.859 24.928C161.101 27.6853 157.529 29.064 153.143 29.064ZM218.015 60.272C224.783 49.744 236.689 44.48 253.735 44.48V66.852C251.729 66.476 249.912 66.288 248.283 66.288C239.133 66.288 231.989 68.9827 226.851 74.372C221.712 79.636 219.143 87.2813 219.143 97.308V146H195.643V45.608H218.015V60.272ZM305.057 147.316C296.91 147.316 288.952 146.251 281.181 144.12C273.41 141.989 267.206 139.295 262.569 136.036L271.593 118.176C276.105 121.184 281.494 123.628 287.761 125.508C294.153 127.263 300.42 128.14 306.561 128.14C320.598 128.14 327.617 124.443 327.617 117.048C327.617 113.539 325.8 111.095 322.165 109.716C318.656 108.337 312.953 107.021 305.057 105.768C296.785 104.515 290.017 103.073 284.753 101.444C279.614 99.8147 275.102 96.9947 271.217 92.984C267.457 88.848 265.577 83.1453 265.577 75.876C265.577 66.3507 269.525 58.768 277.421 53.128C285.442 47.3627 296.221 44.48 309.757 44.48C316.65 44.48 323.544 45.2947 330.437 46.924C337.33 48.428 342.97 50.496 347.357 53.128L338.333 70.988C329.81 65.9747 320.222 63.468 309.569 63.468C302.676 63.468 297.412 64.5333 293.777 66.664C290.268 68.6693 288.513 71.364 288.513 74.748C288.513 78.508 290.393 81.2027 294.153 82.832C298.038 84.336 303.992 85.7773 312.013 87.156C320.034 88.4093 326.614 89.8507 331.753 91.48C336.892 93.1093 341.278 95.8667 344.913 99.752C348.673 103.637 350.553 109.152 350.553 116.296C350.553 125.696 346.48 133.216 338.333 138.856C330.186 144.496 319.094 147.316 305.057 147.316ZM427.755 44.48C440.414 44.48 450.566 48.1773 458.211 55.572C465.856 62.9667 469.679 73.9333 469.679 88.472V146H446.179V91.48C446.179 82.7067 444.111 76.1267 439.975 71.74C435.839 67.228 429.948 64.972 422.303 64.972C413.655 64.972 406.824 67.604 401.811 72.868C396.798 78.0067 394.291 85.464 394.291 95.24V146H370.791V6.50399H394.291V57.264C398.176 53.128 402.939 49.9947 408.579 47.864C414.344 45.608 420.736 44.48 427.755 44.48ZM545.528 147.316C535.376 147.316 526.227 145.123 518.08 140.736C509.934 136.349 503.542 130.271 498.904 122.5C494.392 114.604 492.136 105.705 492.136 95.804C492.136 85.9027 494.392 77.0667 498.904 69.296C503.542 61.5253 509.934 55.4467 518.08 51.06C526.227 46.6733 535.376 44.48 545.528 44.48C555.806 44.48 565.018 46.6733 573.164 51.06C581.311 55.4467 587.64 61.5253 592.152 69.296C596.79 77.0667 599.108 85.9027 599.108 95.804C599.108 105.705 596.79 114.604 592.152 122.5C587.64 130.271 581.311 136.349 573.164 140.736C565.018 145.123 555.806 147.316 545.528 147.316ZM545.528 127.2C554.176 127.2 561.32 124.317 566.96 118.552C572.6 112.787 575.42 105.204 575.42 95.804C575.42 86.404 572.6 78.8213 566.96 73.056C561.32 67.2907 554.176 64.408 545.528 64.408C536.88 64.408 529.736 67.2907 524.096 73.056C518.582 78.8213 515.824 86.404 515.824 95.804C515.824 105.204 518.582 112.787 524.096 118.552C529.736 124.317 536.88 127.2 545.528 127.2ZM677.228 44.48C687.004 44.48 695.715 46.6107 703.36 50.872C711.131 55.1333 717.209 61.1493 721.596 68.92C725.983 76.6907 728.176 85.652 728.176 95.804C728.176 105.956 725.983 114.98 721.596 122.876C717.209 130.647 711.131 136.663 703.36 140.924C695.715 145.185 687.004 147.316 677.228 147.316C663.692 147.316 652.976 142.804 645.08 133.78V182.472H621.58V45.608H643.952V58.768C647.837 54.0053 652.6 50.4333 658.24 48.052C664.005 45.6707 670.335 44.48 677.228 44.48ZM674.596 127.2C683.244 127.2 690.325 124.317 695.84 118.552C701.48 112.787 704.3 105.204 704.3 95.804C704.3 86.404 701.48 78.8213 695.84 73.056C690.325 67.2907 683.244 64.408 674.596 64.408C668.956 64.408 663.88 65.724 659.368 68.356C654.856 70.8627 651.284 74.4973 648.652 79.26C646.02 84.0227 644.704 89.5373 644.704 95.804C644.704 102.071 646.02 107.585 648.652 112.348C651.284 117.111 654.856 120.808 659.368 123.44C663.88 125.947 668.956 127.2 674.596 127.2Z" fill="#0099CC"/>
</g>
<defs>
<filter id="filter0_d_1_4" x="0.144012" y="0.863998" width="732.032" height="189.608" filterUnits="userSpaceOnUse" color-interpolation-filters="sRGB">
<feFlood flood-opacity="0" result="BackgroundImageFix"/>
<feColorMatrix in="SourceAlpha" type="matrix" values="0 0 0 0 0 0 0 0 0 0 0 0 0 0 0 0 0 0 127 0" result="hardAlpha"/>
<feOffset dy="4"/>
<feGaussianBlur stdDeviation="2"/>
<feComposite in2="hardAlpha" operator="out"/>
<feColorMatrix type="matrix" values="0 0 0 0 0 0 0 0 0 0 0 0 0 0 0 0 0 0 0.25 0"/>
<feBlend mode="normal" in2="BackgroundImageFix" result="effect1_dropShadow_1_4"/>
<feBlend mode="normal" in="SourceGraphic" in2="effect1_dropShadow_1_4" result="shape"/>
</filter>
</defs>
</svg>
