<svg width="783" height="193" viewBox="0 0 783 193" fill="none" xmlns="http://www.w3.org/2000/svg">
<g filter="url(#filter0_d_101_10)">
<path d="M87.984 14.144C104.403 14.144 117.312 18.3427 126.712 26.74C136.112 35.012 140.812 46.6053 140.812 61.52C140.812 66.9093 140.311 72.048 139.308 76.936L125.02 148H94.564L100.768 116.416H40.796L34.404 148H4.324L19.364 72.988C23.124 53.5613 30.832 38.8973 42.488 28.996C54.2693 19.0947 69.4347 14.144 87.984 14.144ZM105.656 91.976L109.04 74.868C109.792 70.8573 110.168 67.16 110.168 63.776C110.168 56.0053 107.975 50.1147 103.588 46.104C99.3267 42.0933 93.1227 40.088 84.976 40.088C75.2 40.088 67.3667 42.7827 61.476 48.172C55.5853 53.436 51.512 61.896 49.256 73.552L45.496 91.976H105.656ZM173.317 46.856H202.457L182.341 148H153.201L173.317 46.856ZM192.869 32.756C187.856 32.756 183.72 31.3147 180.461 28.432C177.328 25.424 175.761 21.7893 175.761 17.528C175.761 12.5147 177.516 8.37866 181.025 5.11999C184.66 1.73599 189.36 0.0439887 195.125 0.0439887C200.264 0.0439887 204.4 1.48532 207.533 4.36799C210.792 7.12532 212.421 10.572 212.421 14.708C212.421 20.0973 210.604 24.484 206.969 27.868C203.334 31.1267 198.634 32.756 192.869 32.756ZM255.06 58.888C259.447 54.1253 264.711 50.6787 270.852 48.548C277.119 46.4173 284.451 45.352 292.848 45.352L287.584 72.424C284.075 72.1733 281.819 72.048 280.816 72.048C271.918 72.048 264.774 74.2413 259.384 78.628C254.12 83.0147 250.548 89.8453 248.668 99.12L238.892 148H209.564L229.68 46.856H257.504L255.06 58.888ZM336.812 150.256C326.41 150.256 316.446 148.877 306.92 146.12C297.395 143.363 289.75 139.853 283.984 135.592L296.392 112.092C302.408 116.479 309.176 119.863 316.696 122.244C324.216 124.625 331.924 125.816 339.82 125.816C348.218 125.816 354.86 124.437 359.748 121.68C364.636 118.923 367.08 115.163 367.08 110.4C367.08 106.515 365.138 103.569 361.252 101.564C357.367 99.4333 351.163 97.1773 342.64 94.796C334.118 92.2893 327.162 89.908 321.772 87.652C316.383 85.2707 311.683 81.7613 307.672 77.124C303.787 72.4867 301.844 66.3453 301.844 58.7C301.844 49.8013 304.288 41.968 309.176 35.2C314.19 28.432 321.208 23.2307 330.232 19.596C339.382 15.9613 349.972 14.144 362.004 14.144C370.903 14.144 379.3 15.1467 387.196 17.152C395.092 19.032 401.86 21.7893 407.5 25.424L396.032 48.736C391.144 45.352 385.63 42.8453 379.488 41.216C373.347 39.4613 366.955 38.584 360.312 38.584C351.664 38.584 344.834 40.088 339.82 43.096C334.807 46.104 332.3 49.9893 332.3 54.752C332.3 57.6347 333.366 60.0787 335.496 62.084C337.627 63.964 340.322 65.5307 343.58 66.784C346.839 67.912 351.414 69.2907 357.304 70.92C365.702 73.176 372.595 75.4947 377.984 77.876C383.374 80.132 387.948 83.516 391.708 88.028C395.594 92.4147 397.536 98.2427 397.536 105.512C397.536 114.536 395.03 122.432 390.016 129.2C385.003 135.843 377.922 141.044 368.772 144.804C359.623 148.439 348.97 150.256 336.812 150.256ZM485.463 46.48C496.743 46.48 505.642 49.4253 512.159 55.316C518.802 61.2067 522.123 69.604 522.123 80.508C522.123 83.516 521.684 87.464 520.807 92.352L509.715 148H486.215L497.119 92.916C497.62 90.4093 497.871 87.84 497.871 85.208C497.871 73.0507 491.166 66.972 477.755 66.972C469.107 66.972 461.963 69.416 456.323 74.304C450.683 79.0667 446.86 86.2733 444.855 95.924L434.327 148H410.827L438.651 8.50399H462.151L452.375 57.572C461.023 50.1773 472.052 46.48 485.463 46.48ZM590.076 149.316C580.3 149.316 571.715 147.499 564.32 143.864C557.051 140.104 551.411 134.903 547.4 128.26C543.39 121.617 541.384 113.909 541.384 105.136C541.384 93.9813 543.891 83.9547 548.904 75.056C554.043 66.1573 561.124 59.2013 570.148 54.188C579.298 49.0493 589.575 46.48 600.98 46.48C610.756 46.48 619.342 48.2973 626.736 51.932C634.131 55.5667 639.834 60.7053 643.844 67.348C647.855 73.9907 649.86 81.6987 649.86 90.472C649.86 101.627 647.291 111.653 642.152 120.552C637.014 129.451 629.87 136.469 620.72 141.608C611.696 146.747 601.482 149.316 590.076 149.316ZM591.58 129.2C598.223 129.2 604.114 127.633 609.252 124.5C614.516 121.241 618.652 116.792 621.66 111.152C624.668 105.387 626.172 98.8693 626.172 91.6C626.172 83.704 623.854 77.5627 619.216 73.176C614.579 68.664 608.062 66.408 599.664 66.408C593.022 66.408 587.068 68.0373 581.804 71.296C576.666 74.4293 572.592 78.8787 569.584 84.644C566.576 90.284 565.072 96.7387 565.072 104.008C565.072 111.904 567.391 118.108 572.028 122.62C576.666 127.007 583.183 129.2 591.58 129.2ZM734.56 46.48C742.832 46.48 750.289 48.2347 756.932 51.744C763.7 55.2533 769.027 60.3293 772.912 66.972C776.797 73.6147 778.74 81.448 778.74 90.472C778.74 101.627 776.233 111.716 771.22 120.74C766.332 129.639 759.564 136.657 750.916 141.796C742.393 146.809 732.868 149.316 722.34 149.316C714.444 149.316 707.551 147.937 701.66 145.18C695.769 142.423 691.195 138.412 687.936 133.148L677.784 184.472H654.284L681.544 47.608H703.916L701.848 58.136C710.621 50.3653 721.525 46.48 734.56 46.48ZM720.46 129.2C727.103 129.2 732.993 127.633 738.132 124.5C743.396 121.241 747.532 116.792 750.54 111.152C753.548 105.387 755.052 98.8693 755.052 91.6C755.052 83.704 752.733 77.5627 748.096 73.176C743.459 68.664 736.941 66.408 728.544 66.408C721.901 66.408 715.948 68.0373 710.684 71.296C705.545 74.4293 701.472 78.8787 698.464 84.644C695.456 90.284 693.952 96.7387 693.952 104.008C693.952 111.904 696.271 118.108 700.908 122.62C705.545 127.007 712.063 129.2 720.46 129.2Z" fill="white"/>
</g>
<defs>
<filter id="filter0_d_101_10" x="0.323975" y="0.0439873" width="782.416" height="192.428" filterUnits="userSpaceOnUse" color-interpolation-filters="sRGB">
<feFlood flood-opacity="0" result="BackgroundImageFix"/>
<feColorMatrix in="SourceAlpha" type="matrix" values="0 0 0 0 0 0 0 0 0 0 0 0 0 0 0 0 0 0 127 0" result="hardAlpha"/>
<feOffset dy="4"/>
<feGaussianBlur stdDeviation="2"/>
<feComposite in2="hardAlpha" operator="out"/>
<feColorMatrix type="matrix" values="0 0 0 0 0 0 0 0 0 0 0 0 0 0 0 0 0 0 0.25 0"/>
<feBlend mode="normal" in2="BackgroundImageFix" result="effect1_dropShadow_101_10"/>
<feBlend mode="normal" in="SourceGraphic" in2="effect1_dropShadow_101_10" result="shape"/>
</filter>
</defs>
</svg>
