<svg xmlns="http://www.w3.org/2000/svg" xmlns:xlink="http://www.w3.org/1999/xlink" width="500" zoomAndPan="magnify" viewBox="0 0 375 374.999991" height="500" preserveAspectRatio="xMidYMid meet" version="1.0"><defs><filter x="0%" y="0%" width="100%" height="100%" id="24816d341e"><feColorMatrix values="0 0 0 0 1 0 0 0 0 1 0 0 0 0 1 0 0 0 1 0" color-interpolation-filters="sRGB"/></filter><clipPath id="54fbfb108a"><path d="M 205 112.253906 L 255 112.253906 L 255 167 L 205 167 Z M 205 112.253906 " clip-rule="nonzero"/></clipPath><clipPath id="c838be1f67"><path d="M 182.082031 145 L 283 145 L 283 232.253906 L 182.082031 232.253906 Z M 182.082031 145 " clip-rule="nonzero"/></clipPath><clipPath id="af97bd02f8"><path d="M 193 145 L 293.832031 145 L 293.832031 232.253906 L 193 232.253906 Z M 193 145 " clip-rule="nonzero"/></clipPath><clipPath id="488c4cacce"><path d="M 218 112.253906 L 268 112.253906 L 268 167 L 218 167 Z M 218 112.253906 " clip-rule="nonzero"/></clipPath><mask id="47261c9b8c"><g filter="url(#24816d341e)"><rect x="-37.5" width="450" fill="#000000" y="-37.499999" height="449.999989" fill-opacity="0.4"/></g></mask><clipPath id="006271b701"><path d="M 0 0 L 12.480469 0 L 12.480469 21 L 0 21 Z M 0 0 " clip-rule="nonzero"/></clipPath><clipPath id="291a6969e9"><rect x="0" width="13" y="0" height="22"/></clipPath><clipPath id="abf6edeb45"><path d="M 108 106 L 190 106 L 190 245.367188 L 108 245.367188 Z M 108 106 " clip-rule="nonzero"/></clipPath></defs><g clip-path="url(#54fbfb108a)"><path fill="#100f0f" d="M 252.085938 166.378906 C 250.53125 166.378906 249.265625 165.113281 249.265625 163.550781 L 249.265625 136.90625 C 249.265625 126.421875 240.746094 117.890625 230.285156 117.890625 C 219.8125 117.890625 211.296875 126.421875 211.296875 136.90625 L 211.296875 163.550781 C 211.296875 165.113281 210.03125 166.378906 208.480469 166.378906 C 206.917969 166.378906 205.65625 165.113281 205.65625 163.550781 L 205.65625 136.90625 C 205.65625 123.304688 216.703125 112.242188 230.285156 112.242188 C 243.863281 112.242188 254.910156 123.304688 254.910156 136.90625 L 254.910156 163.550781 C 254.910156 165.113281 253.652344 166.378906 252.085938 166.378906 " fill-opacity="1" fill-rule="nonzero"/></g><g clip-path="url(#c838be1f67)"><path fill="#f58013" d="M 282.480469 225.40625 C 282.480469 229.179688 279.394531 232.265625 275.625 232.265625 L 189.128906 232.265625 C 185.359375 232.265625 182.277344 229.179688 182.277344 225.40625 L 182.355469 152.640625 C 182.355469 148.867188 185.441406 145.777344 189.210938 145.777344 L 273.992188 145.777344 C 277.757812 145.777344 280.847656 148.867188 280.847656 152.640625 L 282.480469 225.40625 " fill-opacity="1" fill-rule="nonzero"/></g><g clip-path="url(#af97bd02f8)"><path fill="#f9af23" d="M 293.691406 225.40625 C 293.691406 229.179688 290.609375 232.265625 286.84375 232.265625 L 200.34375 232.265625 C 196.574219 232.265625 193.488281 229.179688 193.488281 225.40625 L 193.570312 152.640625 C 193.570312 148.867188 196.652344 145.777344 200.421875 145.777344 L 285.207031 145.777344 C 288.976562 145.777344 292.0625 148.867188 292.0625 152.640625 L 293.691406 225.40625 " fill-opacity="1" fill-rule="nonzero"/></g><path fill="#f58013" d="M 227.160156 163.550781 C 227.160156 167.171875 224.230469 170.109375 220.613281 170.109375 C 216.992188 170.109375 214.058594 167.171875 214.058594 163.550781 C 214.058594 159.925781 216.992188 156.992188 220.613281 156.992188 C 224.230469 156.992188 227.160156 159.925781 227.160156 163.550781 " fill-opacity="1" fill-rule="nonzero"/><path fill="#f58013" d="M 271.570312 163.550781 C 271.570312 167.171875 268.636719 170.109375 265.019531 170.109375 C 261.398438 170.109375 258.464844 167.171875 258.464844 163.550781 C 258.464844 159.925781 261.398438 156.992188 265.019531 156.992188 C 268.636719 156.992188 271.570312 159.925781 271.570312 163.550781 " fill-opacity="1" fill-rule="nonzero"/><g clip-path="url(#488c4cacce)"><path fill="#141515" d="M 264.621094 166.378906 C 263.0625 166.378906 261.800781 165.113281 261.800781 163.550781 L 261.800781 136.90625 C 261.800781 126.421875 253.28125 117.890625 242.816406 117.890625 C 232.347656 117.890625 223.828125 126.421875 223.828125 136.90625 L 223.828125 163.550781 C 223.828125 165.113281 222.566406 166.378906 221.007812 166.378906 C 219.449219 166.378906 218.183594 165.113281 218.183594 163.550781 L 218.183594 136.90625 C 218.183594 123.304688 229.230469 112.242188 242.816406 112.242188 C 256.398438 112.242188 267.441406 123.304688 267.441406 136.90625 L 267.441406 163.550781 C 267.441406 165.113281 266.179688 166.378906 264.621094 166.378906 " fill-opacity="1" fill-rule="nonzero"/></g><path fill="#ffffff" d="M 270.230469 185.738281 L 269.148438 185.683594 C 267.347656 185.601562 265.832031 186.84375 265.753906 188.46875 L 265.328125 197.625 L 265.320312 197.613281 L 264.125 195.496094 L 253.34375 176.371094 C 252.59375 175.035156 250.898438 174.5625 249.566406 175.316406 L 248.761719 175.769531 C 247.425781 176.53125 246.957031 178.21875 247.707031 179.554688 L 252.871094 188.71875 C 252.222656 188.578125 251.527344 188.660156 250.910156 189.007812 L 250.101562 189.460938 C 248.773438 190.21875 248.296875 191.910156 249.054688 193.246094 C 248.296875 191.910156 246.609375 191.4375 245.273438 192.191406 L 244.464844 192.652344 C 243.132812 193.40625 242.65625 195.101562 243.410156 196.4375 C 242.65625 195.101562 240.972656 194.628906 239.628906 195.382812 L 238.832031 195.835938 C 237.496094 196.589844 237.019531 198.285156 237.773438 199.621094 L 242.375 207.789062 C 242.375 207.789062 248.453125 218.925781 251.003906 221.996094 C 253.367188 224.863281 253.878906 224.148438 254.921875 225.183594 C 256.457031 226.714844 257.925781 227.992188 259.257812 227.238281 L 271.945312 220.066406 C 273.285156 219.3125 273.234375 217.292969 272.4375 215.277344 C 272.152344 214.550781 271.761719 212.5 271.957031 212.164062 C 271.957031 212.164062 272.332031 210.804688 272.316406 210.5625 L 273.339844 188.828125 C 273.414062 187.203125 272.023438 185.820312 270.230469 185.738281 " fill-opacity="1" fill-rule="nonzero"/><path fill="#f1f1f2" d="M 196.367188 153.195312 C 192.554688 164.328125 169.578125 162.949219 167.671875 162.949219 C 164.601562 168.78125 165.816406 173.660156 174.078125 185.589844 C 182.335938 197.519531 182.8125 210.480469 181.941406 215.171875 C 183.847656 213.902344 189.007812 213.105469 191.867188 216.128906 C 194.726562 219.148438 195.308594 231.132812 189.800781 236.964844 C 184.757812 242.304688 152.160156 243.007812 129.605469 242.371094 C 128.222656 242.332031 126.90625 242.25 125.65625 242.121094 C 123.421875 243.335938 120.824219 244.445312 117.132812 244.4375 C 110.996094 244.425781 109.605469 238.894531 109.371094 235.128906 C 103.800781 229.066406 102.101562 219.207031 101.648438 205.527344 C 100.855469 181.570312 122.140625 156.164062 126.429688 137.078125 C 126.847656 135.203125 127.347656 133.46875 127.902344 131.863281 C 125.605469 131.304688 122.984375 130.148438 120.710938 127.832031 C 115.945312 122.980469 117.132812 108.453125 128.730469 107.472656 C 136.472656 106.820312 140.488281 111.226562 142.394531 114.554688 C 145.144531 113.289062 147.824219 112.675781 150.09375 112.425781 C 180.484375 109.085938 180.058594 134.226562 185.671875 138.148438 C 197.109375 144.828125 197.53125 149.378906 196.367188 153.195312 Z M 196.367188 153.195312 C 192.554688 164.328125 169.578125 162.949219 167.671875 162.949219 C 164.601562 168.78125 165.816406 173.660156 174.078125 185.589844 C 182.335938 197.519531 182.8125 210.480469 181.941406 215.171875 C 183.847656 213.902344 189.007812 213.105469 191.867188 216.128906 C 194.726562 219.148438 195.308594 231.132812 189.800781 236.964844 C 184.757812 242.304688 152.160156 243.007812 129.605469 242.371094 C 128.222656 242.332031 126.90625 242.25 125.65625 242.121094 C 123.421875 243.335938 120.824219 244.445312 117.132812 244.4375 C 110.996094 244.425781 109.605469 238.894531 109.371094 235.128906 C 103.800781 229.066406 102.101562 219.207031 101.648438 205.527344 C 100.855469 181.570312 122.140625 156.164062 126.429688 137.078125 C 126.847656 135.203125 127.347656 133.46875 127.902344 131.863281 C 125.605469 131.304688 122.984375 130.148438 120.710938 127.832031 C 115.945312 122.980469 117.132812 108.453125 128.730469 107.472656 C 136.472656 106.820312 140.488281 111.226562 142.394531 114.554688 C 145.144531 113.289062 147.824219 112.675781 150.09375 112.425781 C 180.484375 109.085938 180.058594 134.226562 185.671875 138.148438 C 197.109375 144.828125 197.53125 149.378906 196.367188 153.195312 Z M 196.367188 153.195312 " fill-opacity="1" fill-rule="nonzero"/><path fill="#f1f1f2" d="M 161.863281 145.359375 C 165.355469 145.136719 169.148438 142.695312 168.289062 136.585938 C 167.460938 130.683594 162.636719 130.722656 159.878906 131.011719 C 157.121094 131.296875 152.800781 133.503906 153.792969 139.148438 C 154.785156 144.792969 158.867188 145.550781 161.863281 145.359375 Z M 161.863281 145.359375 C 165.355469 145.136719 169.148438 142.695312 168.289062 136.585938 C 167.460938 130.683594 162.636719 130.722656 159.878906 131.011719 C 157.121094 131.296875 152.800781 133.503906 153.792969 139.148438 C 154.785156 144.792969 158.867188 145.550781 161.863281 145.359375 Z M 161.863281 145.359375 " fill-opacity="1" fill-rule="nonzero"/><path fill="#231f20" d="M 159.347656 144.082031 C 158.230469 144.15625 156.917969 144.054688 155.769531 143.421875 C 154.875 142.625 153.992188 141.152344 153.648438 139.195312 C 153.195312 136.628906 153.992188 134.609375 155.089844 133.445312 C 155.96875 132.820312 156.972656 132.496094 157.800781 132.40625 C 159.949219 132.171875 163.710938 132.46875 164.359375 137.273438 C 165.027344 142.246094 162.070312 143.902344 159.347656 144.082031 Z M 159.347656 144.082031 C 158.230469 144.15625 156.917969 144.054688 155.769531 143.421875 C 154.875 142.625 153.992188 141.152344 153.648438 139.195312 C 153.195312 136.628906 153.992188 134.609375 155.089844 133.445312 C 155.96875 132.820312 156.972656 132.496094 157.800781 132.40625 C 159.949219 132.171875 163.710938 132.46875 164.359375 137.273438 C 165.027344 142.246094 162.070312 143.902344 159.347656 144.082031 Z M 189.894531 149.523438 C 190.382812 150.199219 193.421875 151.515625 195.261719 151.273438 C 197.023438 151.039062 196.957031 148.957031 196.609375 147.925781 C 195.832031 145.625 193.464844 145.746094 192.28125 145.976562 C 189.378906 146.535156 189.019531 148.308594 189.894531 149.523438 Z M 189.894531 149.523438 " fill-opacity="1" fill-rule="nonzero"/><g mask="url(#47261c9b8c)"><g transform="matrix(1, 0, 0, 1, 114, 162)"><g clip-path="url(#291a6969e9)"><g clip-path="url(#006271b701)"><path fill="#a47b67" d="M 8.6875 6.742188 C 3.800781 13.753906 2.023438 8.304688 5.023438 3.351562 C 8.019531 -1.601562 13.574219 -0.265625 8.6875 6.742188 Z M 1.085938 16.121094 C -0.53125 19.730469 1.582031 23.625 4.324219 18.433594 C 7.070312 13.242188 2.699219 12.515625 1.085938 16.121094 Z M 11.492188 13.195312 C 13.410156 9.566406 10.351562 9.058594 9.222656 11.582031 C 8.09375 14.101562 9.570312 16.824219 11.492188 13.195312 " fill-opacity="1" fill-rule="nonzero"/></g></g></g></g><g clip-path="url(#abf6edeb45)"><path fill="#a47b67" d="M 177.28125 220.941406 C 174.941406 220.941406 172.011719 220.824219 171.519531 220.800781 C 171.296875 220.792969 171.125 220.605469 171.128906 220.382812 C 171.136719 220.207031 171.535156 202.558594 161.515625 188.367188 C 161.386719 188.183594 161.429688 187.929688 161.613281 187.800781 C 161.796875 187.671875 162.050781 187.714844 162.179688 187.898438 C 171.507812 201.113281 171.941406 217.265625 171.945312 220.003906 C 174.546875 220.109375 178.386719 220.195312 179.609375 220.058594 C 179.46875 215.828125 181.84375 214.09375 182.113281 213.945312 C 182.082031 214.253906 182.019531 214.855469 181.960938 215.148438 C 181.300781 215.894531 180.257812 217.542969 180.4375 220.371094 C 180.449219 220.558594 180.332031 220.726562 180.152344 220.785156 C 179.765625 220.902344 178.617188 220.941406 177.28125 220.941406 Z M 126.441406 242.195312 C 126.214844 242.171875 125.5625 242.121094 125.3125 242.105469 C 123.109375 243.582031 118.292969 245.378906 113.867188 243.511719 C 109.242188 241.5625 108.878906 226.820312 108.878906 226.671875 C 108.871094 226.449219 108.691406 226.273438 108.472656 226.273438 C 108.46875 226.273438 108.464844 226.273438 108.460938 226.273438 C 108.238281 226.277344 108.0625 226.464844 108.066406 226.6875 C 108.078125 227.316406 108.445312 242.109375 113.554688 244.261719 C 114.984375 244.867188 116.453125 245.109375 117.871094 245.109375 C 121.609375 245.109375 125.0625 243.417969 126.441406 242.195312 Z M 182.644531 157.988281 C 182.398438 158.035156 182.140625 158.058594 181.871094 158.0625 C 178.84375 158.09375 178.117188 155.347656 178.027344 153.605469 C 178.015625 153.371094 178.1875 153.171875 178.421875 153.15625 C 178.652344 153.140625 178.847656 153.320312 178.859375 153.554688 C 178.867188 153.726562 178.875 157.242188 181.867188 157.210938 C 182.726562 157.203125 183.421875 156.921875 183.933594 156.382812 C 185.019531 155.238281 184.996094 153.265625 184.996094 153.246094 C 184.992188 153.011719 185.171875 152.816406 185.402344 152.808594 C 185.632812 152.804688 185.824219 152.988281 185.828125 153.222656 C 185.832031 153.316406 185.863281 155.5625 184.53125 156.96875 C 184.023438 157.507812 183.390625 157.847656 182.644531 157.988281 Z M 183.828125 219.792969 C 183.832031 219.792969 183.835938 219.792969 183.839844 219.792969 C 184.066406 219.785156 184.238281 219.597656 184.234375 219.375 C 184.109375 215.613281 185.949219 214.207031 186.027344 214.148438 C 186.0625 214.121094 186.089844 214.085938 186.117188 214.050781 C 185.695312 214.0625 185.285156 214.101562 184.890625 214.164062 C 184.230469 214.988281 183.332031 216.632812 183.421875 219.402344 C 183.429688 219.621094 183.609375 219.792969 183.828125 219.792969 Z M 188.75 214.332031 C 188.253906 214.929688 187.214844 216.5625 187.320312 219.71875 C 187.328125 219.9375 187.507812 220.109375 187.726562 220.109375 C 187.730469 220.109375 187.738281 220.109375 187.742188 220.109375 C 187.964844 220.101562 188.140625 219.914062 188.132812 219.691406 C 188.011719 216.089844 189.507812 214.695312 189.535156 214.671875 C 189.554688 214.65625 189.566406 214.632812 189.582031 214.609375 C 189.308594 214.503906 189.03125 214.40625 188.75 214.332031 Z M 130.660156 126.835938 C 132.769531 122.808594 135.351562 119.933594 138.054688 117.902344 C 137.496094 116.347656 135.292969 111.613281 129.230469 112.125 C 122.363281 112.703125 121.660156 121.304688 124.480469 124.175781 C 126.535156 126.269531 129.058594 126.761719 130.660156 126.835938 Z M 179.578125 126.636719 C 183.8125 121.621094 182.617188 107.429688 172 106.460938 C 165.632812 105.878906 161.984375 109.296875 160.007812 112.398438 C 170.933594 113.9375 176.300781 120.65625 179.578125 126.636719 Z M 179.578125 126.636719 " fill-opacity="1" fill-rule="nonzero"/></g></svg>