<svg width="189" height="36" viewBox="0 0 189 36" fill="none" xmlns="http://www.w3.org/2000/svg">
<mask id="mask0_130_87" style="mask-type:luminance" maskUnits="userSpaceOnUse" x="21" y="0" width="48" height="36">
<path d="M21.6372 0H68.3278V36H21.6372V0Z" fill="white"/>
</mask>
<g mask="url(#mask0_130_87)">
<path d="M68.3277 9.83132L63.6034 33.9587C63.6034 34.1901 63.5661 34.4128 63.4931 34.6268C63.4219 34.8407 63.3187 35.0285 63.1853 35.1922C63.0518 35.3582 62.8988 35.4826 62.7244 35.5721C62.5501 35.6616 62.3686 35.7075 62.1799 35.7075L30.347 35.9913C30.1602 35.9913 29.9787 35.9455 29.8043 35.8559C29.6299 35.7664 29.4769 35.6398 29.3435 35.4761C29.21 35.3123 29.1068 35.1245 29.0339 34.9106C28.9627 34.6966 28.9253 34.4739 28.9253 34.2425V9.82914C28.9253 9.78111 28.9271 9.73307 28.9307 9.68504L28.5 4.96262H23.7936C23.5338 4.94952 23.2847 4.87747 23.0481 4.74648C22.8096 4.6133 22.6014 4.43209 22.4199 4.20284C22.2402 3.97142 22.1014 3.70724 22.0036 3.41032C21.9057 3.11339 21.8577 2.80337 21.8577 2.48461C21.8577 2.16367 21.9057 1.85582 22.0036 1.55672C22.1014 1.25979 22.2402 0.995615 22.4199 0.766371C22.6014 0.534944 22.8096 0.353732 23.0481 0.222736C23.2847 0.0917395 23.5338 0.0196917 23.7936 0.0065918H32.0997C32.1015 0.0153254 32.1015 0.0240574 32.0997 0.0327911L32.5499 4.96481L32.8346 8.08034H66.9042C67.0928 8.08252 67.2743 8.12619 67.4487 8.2157C67.623 8.30521 67.7761 8.43184 67.9095 8.59559C68.043 8.75934 68.1462 8.94928 68.2191 9.16324C68.2903 9.3772 68.3277 9.59989 68.3277 9.83132Z" fill="#D62F2F"/>
</g>
<path d="M14.2035 13.783H30.5514C30.8038 13.783 31.0465 13.8284 31.2793 13.9241C31.5146 14.0174 31.7205 14.1538 31.8969 14.3285C32.0759 14.5031 32.2131 14.7041 32.3112 14.9314C32.4067 15.1611 32.4558 15.398 32.4558 15.6444V16.111C32.4558 16.3574 32.4067 16.5967 32.3112 16.824C32.2131 17.0513 32.0759 17.2547 31.8969 17.4293C31.7205 17.604 31.5146 17.738 31.2793 17.8313C31.0465 17.927 30.8038 17.9748 30.5514 17.9748H14.2035C13.951 17.9748 13.7084 17.927 13.4755 17.8313C13.2427 17.738 13.0368 17.604 12.8579 17.4293C12.679 17.2547 12.5417 17.0513 12.4437 16.824C12.3481 16.5967 12.2991 16.3574 12.2991 16.111V15.6444C12.2991 15.398 12.3481 15.1611 12.4437 14.9314C12.5417 14.7041 12.679 14.5031 12.8579 14.3285C13.0368 14.1538 13.2427 14.0174 13.4755 13.9241C13.7084 13.8284 13.951 13.783 14.2035 13.783Z" fill="white"/>
<path d="M14.0744 29.293H29.3139C29.5493 29.293 29.7754 29.336 29.9925 29.4222C30.2118 29.5062 30.4038 29.6267 30.5683 29.7839C30.7351 29.9411 30.863 30.1242 30.9544 30.3287C31.0435 30.5333 31.0892 30.7486 31.0892 30.9704V31.3903C31.0892 31.6121 31.0435 31.8253 30.9544 32.032C30.863 32.2366 30.7351 32.4175 30.5683 32.5747C30.4038 32.7319 30.2118 32.8525 29.9925 32.9386C29.7754 33.0248 29.5493 33.0657 29.3139 33.0657H14.0744C13.839 33.0657 13.6128 33.0248 13.3958 32.9386C13.1787 32.8525 12.9868 32.7319 12.82 32.5747C12.6532 32.4175 12.5253 32.2366 12.4339 32.032C12.3448 31.8253 12.2991 31.6121 12.2991 31.3903V30.9704C12.2991 30.7486 12.3448 30.5333 12.4339 30.3287C12.5253 30.1242 12.6532 29.9411 12.82 29.7839C12.9868 29.6267 13.1787 29.5062 13.3958 29.4222C13.6128 29.336 13.839 29.293 14.0744 29.293Z" fill="white"/>
<mask id="mask1_130_87" style="mask-type:luminance" maskUnits="userSpaceOnUse" x="0" y="21" width="35" height="5">
<path d="M0 21.468H34.5055V25.9394H0V21.468Z" fill="white"/>
</mask>
<g mask="url(#mask1_130_87)">
<path d="M1.9799 21.824H32.1994C32.4622 21.824 32.7136 21.872 32.956 21.9681C33.1984 22.0663 33.4136 22.2039 33.5994 22.3829C33.7851 22.5619 33.9279 22.7693 34.0275 23.0051C34.1295 23.2387 34.1793 23.4833 34.1793 23.7365C34.1793 23.9898 34.1295 24.2343 34.0275 24.4679C33.9279 24.7015 33.7851 24.9089 33.5994 25.088C33.4136 25.267 33.1984 25.4067 32.956 25.5028C32.7136 25.601 32.4622 25.6491 32.1994 25.6491H1.9799C1.71712 25.6491 1.46567 25.601 1.22328 25.5028C0.980888 25.4067 0.765681 25.267 0.579925 25.088C0.394168 24.9089 0.251452 24.7015 0.151777 24.4679C0.0498374 24.2343 0 23.9898 0 23.7365C0 23.4833 0.0498374 23.2387 0.151777 23.0051C0.251452 22.7693 0.394168 22.5619 0.579925 22.3829C0.765681 22.2039 0.980888 22.0663 1.22328 21.9681C1.46567 21.872 1.71712 21.824 1.9799 21.824Z" fill="white"/>
</g>
<path d="M42.6793 14H55.3598C55.5443 14 55.7037 14.0676 55.8378 14.2029C55.972 14.3381 56.0391 14.4987 56.0391 14.6847V18.5394C56.0391 18.7254 55.972 18.886 55.8378 19.0213C55.7037 19.1565 55.5443 19.2241 55.3598 19.2241H48.1641V21.1008H54.8566C55.0411 21.1008 55.2005 21.1684 55.3346 21.3036C55.4688 21.4389 55.5359 21.5995 55.5359 21.7855V25.6148C55.5359 25.8008 55.4688 25.9614 55.3346 26.0967C55.2005 26.2319 55.0411 26.2995 54.8566 26.2995H48.1641V31.0672C48.1641 31.2532 48.097 31.4138 47.9629 31.549C47.8287 31.6843 47.6693 31.7519 47.4848 31.7519H42.6793C42.4948 31.7519 42.3355 31.6843 42.2013 31.549C42.0671 31.4138 42 31.2532 42 31.0672V14.6847C42 14.4987 42.0671 14.3381 42.2013 14.2029C42.3355 14.0676 42.4948 14 42.6793 14ZM64.7925 14.3859H70.1335C70.7242 14.3859 71.0934 14.6588 71.2411 15.2046L76.7297 31.0325C76.7461 31.0821 76.7543 31.1648 76.7543 31.2806C76.7543 31.3798 76.6969 31.4873 76.582 31.6031C76.4836 31.7023 76.3605 31.7519 76.2128 31.7519H71.6595C71.1672 31.7519 70.8473 31.5452 70.6996 31.1317L70.1089 29.4943H64.8171L64.2264 31.1317C64.0787 31.5452 63.7588 31.7519 63.2665 31.7519H58.7132C58.5655 31.7519 58.4342 31.7023 58.3194 31.6031C58.2209 31.4873 58.1717 31.3798 58.1717 31.2806C58.1717 31.1648 58.1799 31.0821 58.1963 31.0325L63.6849 15.2046C63.8326 14.6588 64.2018 14.3859 64.7925 14.3859ZM66.0724 24.6567H68.8536L67.4507 20.0423L66.0724 24.6567ZM79.0225 19.8438C79.0225 18.1568 79.7117 16.7841 81.09 15.7256C82.4847 14.6671 84.3061 14.1378 86.554 14.1378C88.8184 14.1378 90.6644 14.6919 92.0919 15.8C93.5358 16.9081 94.2578 18.0659 94.2578 19.2732C94.2578 19.4221 94.2004 19.5544 94.0855 19.6701C93.9871 19.7694 93.8722 19.819 93.7409 19.819H88.8184C88.441 19.819 88.0964 19.6784 87.7847 19.3972C87.4729 19.1161 87.0545 18.9755 86.5294 18.9755C85.7418 18.9755 85.348 19.207 85.348 19.6701C85.348 19.9182 85.5367 20.125 85.9141 20.2904C86.3079 20.4557 87.0299 20.6046 88.08 20.7369C90.5249 21.0511 92.2642 21.63 93.2979 22.4735C94.3481 23.3005 94.8731 24.5657 94.8731 26.2692C94.8731 27.9562 94.1019 29.3372 92.5595 30.4123C91.0335 31.4708 89.0317 32 86.554 32C84.0763 32 82.1319 31.4873 80.7208 30.4619C79.3097 29.4364 78.6041 28.1877 78.6041 26.7158C78.6041 26.5669 78.6533 26.4429 78.7518 26.3436C78.8666 26.2279 78.9979 26.17 79.1456 26.17H83.822C84.1666 26.17 84.544 26.3354 84.9542 26.6662C85.3808 26.9969 85.9633 27.1623 86.7017 27.1623C87.9323 27.1623 88.5477 26.9308 88.5477 26.4677C88.5477 26.17 88.3261 25.9467 87.8831 25.7979C87.4401 25.6325 86.6033 25.4671 85.3726 25.3017C81.1392 24.7394 79.0225 22.9201 79.0225 19.8438ZM97.7457 14.3859H112.169C112.349 14.3859 112.505 14.4521 112.636 14.5844C112.768 14.7167 112.833 14.8738 112.833 15.0557V19.0499C112.833 19.2319 112.768 19.389 112.636 19.5213C112.505 19.6536 112.349 19.7198 112.169 19.7198H108.083V31.0821C108.083 31.264 108.017 31.4211 107.886 31.5534C107.755 31.6858 107.599 31.7519 107.419 31.7519H102.496C102.315 31.7519 102.16 31.6858 102.028 31.5534C101.897 31.4211 101.831 31.264 101.831 31.0821V19.7198H97.7457C97.5652 19.7198 97.4093 19.6536 97.2781 19.5213C97.1468 19.389 97.0812 19.2319 97.0812 19.0499V15.0557C97.0812 14.8738 97.1468 14.7167 97.2781 14.5844C97.4093 14.4521 97.5652 14.3859 97.7457 14.3859ZM121.821 20.985V25.1528C121.821 26.4925 122.428 27.1623 123.643 27.1623C124.578 27.1623 125.193 26.7158 125.489 25.8227C125.571 25.5415 125.669 25.3513 125.784 25.2521C125.915 25.1528 126.12 25.1032 126.399 25.1032H131.42C131.568 25.1032 131.691 25.1611 131.79 25.2769C131.904 25.3761 131.962 25.5002 131.962 25.649C131.962 27.0879 131.552 28.2953 130.731 29.2711C129.222 31.0904 126.867 32 123.667 32C121.157 32 119.155 31.4459 117.662 30.3378C116.169 29.2132 115.422 27.4931 115.422 25.1776V20.9602C115.422 18.6943 116.185 16.9908 117.711 15.8496C119.237 14.7084 121.222 14.1378 123.667 14.1378C126.867 14.1378 129.222 15.0475 130.731 16.8668C131.552 17.8426 131.962 19.0499 131.962 20.4888C131.962 20.6377 131.904 20.77 131.79 20.8858C131.691 20.985 131.568 21.0346 131.42 21.0346H126.399C126.137 21.0346 125.94 20.985 125.809 20.8858C125.694 20.7865 125.587 20.5963 125.489 20.3152C125.177 19.4221 124.562 18.9755 123.643 18.9755C122.428 18.9755 121.821 19.6453 121.821 20.985ZM140.431 14.3859H145.772C146.362 14.3859 146.732 14.6588 146.879 15.2046L152.368 31.0325C152.384 31.0821 152.393 31.1648 152.393 31.2806C152.393 31.3798 152.335 31.4873 152.22 31.6031C152.122 31.7023 151.999 31.7519 151.851 31.7519H147.298C146.806 31.7519 146.486 31.5452 146.338 31.1317L145.747 29.4943H140.455L139.865 31.1317C139.717 31.5452 139.397 31.7519 138.905 31.7519H134.351C134.204 31.7519 134.073 31.7023 133.958 31.6031C133.859 31.4873 133.81 31.3798 133.81 31.2806C133.81 31.1648 133.818 31.0821 133.835 31.0325L139.323 15.2046C139.471 14.6588 139.84 14.3859 140.431 14.3859ZM141.711 24.6567H144.492L143.089 20.0423L141.711 24.6567ZM170.954 30.9332C171.004 31.0325 171.028 31.14 171.028 31.2557C171.028 31.3715 170.971 31.4873 170.856 31.6031C170.758 31.7023 170.634 31.7519 170.487 31.7519H165.441C164.933 31.7519 164.58 31.5286 164.383 31.0821L162.266 26.3436H161.257V31.0821C161.257 31.264 161.191 31.4211 161.06 31.5534C160.929 31.6858 160.773 31.7519 160.592 31.7519H155.768C155.588 31.7519 155.432 31.6858 155.301 31.5534C155.169 31.4211 155.104 31.264 155.104 31.0821V15.0557C155.104 14.8738 155.169 14.7167 155.301 14.5844C155.432 14.4521 155.588 14.3859 155.768 14.3859H163.054C165.417 14.3859 167.263 14.9234 168.592 15.9985C169.921 17.057 170.585 18.5868 170.585 20.5881C170.585 22.5727 169.699 24.1357 167.927 25.2769L170.954 30.9332ZM161.257 19.0003V21.63H163.054C163.415 21.63 163.694 21.5142 163.891 21.2827C164.088 21.0346 164.186 20.7286 164.186 20.3648C164.186 20.0009 164.088 19.6867 163.891 19.4221C163.71 19.1409 163.431 19.0003 163.054 19.0003H161.257ZM173.912 14.3859H188.335C188.516 14.3859 188.672 14.4521 188.803 14.5844C188.934 14.7167 189 14.8738 189 15.0557V19.0499C189 19.2319 188.934 19.389 188.803 19.5213C188.672 19.6536 188.516 19.7198 188.335 19.7198H184.25V31.0821C184.25 31.264 184.184 31.4211 184.053 31.5534C183.922 31.6858 183.766 31.7519 183.585 31.7519H178.663C178.482 31.7519 178.326 31.6858 178.195 31.5534C178.064 31.4211 177.998 31.264 177.998 31.0821V19.7198H173.912C173.732 19.7198 173.576 19.6536 173.445 19.5213C173.313 19.389 173.248 19.2319 173.248 19.0499V15.0557C173.248 14.8738 173.313 14.7167 173.445 14.5844C173.576 14.4521 173.732 14.3859 173.912 14.3859Z" fill="white"/>
</svg>
