<svg width="149" height="132" viewBox="0 0 149 132" fill="none" xmlns="http://www.w3.org/2000/svg">
<mask id="mask0_1_316" style="mask-type:luminance" maskUnits="userSpaceOnUse" x="0" y="0" width="149" height="132">
<path d="M10 0H149V130L0 132L10 0Z" fill="white"/>
</mask>
<g mask="url(#mask0_1_316)">
<path fill-rule="evenodd" clip-rule="evenodd" d="M19.096 166.873C19.0364 168.491 18.0299 170.004 16.4001 170.598C11.5205 172.374 3.15138 175.42 -1.72818 177.196C-3.8376 177.963 -6.16336 176.903 -6.91686 174.833C-7.66858 172.768 -6.56837 170.461 -4.45895 169.693L11.0852 164.035L14.7759 53.3535L14.7785 53.3304C14.8453 51.732 15.8612 50.2593 17.4714 49.6732L27.2403 46.1177C22.9796 47.3858 18.4437 45.1568 16.9296 40.9967C15.3513 36.6604 17.658 31.8358 22.0775 30.2272C26.497 28.6187 31.3653 30.8319 32.9435 35.1682C34.4541 39.3186 32.4001 43.9238 28.3366 45.7187L70.7844 30.2692C66.5285 31.5355 61.9878 29.3084 60.4736 25.1483C58.8954 20.812 61.2021 15.9873 65.6216 14.3788C70.0411 12.7702 74.9094 14.9835 76.4876 19.3198C77.9982 23.4701 75.9393 28.0771 71.8807 29.8702L79.4187 31.5607C81.5281 30.793 83.933 34.6289 84.6847 36.6943C85.4364 38.7596 84.3362 41.0667 82.2268 41.8345L22.7894 56.2289L22.1232 72.7333L87.0078 54.9706C88.9086 54.2844 91.0723 55.082 91.9953 56.9022C96.4828 65.7444 108.102 88.652 112.581 97.5027C113.577 99.4625 112.755 101.879 110.757 102.878C110.442 103.031 110.197 103.12 109.881 103.197L19.4808 138.798L19.096 166.873ZM69.9262 26.2362C67.6748 27.0556 65.2071 25.9252 64.4037 23.7179C63.6039 21.5204 64.7775 19.0646 67.0191 18.2488C69.2704 17.4294 71.7381 18.5598 72.538 20.7573C73.3396 22.9597 72.1677 25.4204 69.9262 26.2362ZM26.3821 42.0846C24.1357 42.9023 21.6581 41.7754 20.8548 39.5681C20.0549 37.3706 21.2285 34.9149 23.475 34.0972C25.7165 33.2814 28.1941 34.4083 28.9939 36.6058C29.7955 38.8082 28.6237 41.2688 26.3821 42.0846ZM30.7877 78.6308L21.7745 81.0798L21.2734 93.3783L22.2585 96.0848L35.3653 91.3144L30.7463 78.6236L30.7877 78.6308ZM50.8449 85.7081L46.6855 74.2801L33.6531 77.8539L38.1884 90.3146L50.8449 85.7081ZM66.3107 80.0791L62.6127 69.9187L49.5816 73.4809L53.6573 84.679L66.3107 80.0791ZM82.2317 74.2845L79.0093 65.4308L65.5155 69.1227L69.128 79.0482L82.2317 74.2845ZM90.2093 71.3809L86.192 63.465L81.9027 64.6548L85.0396 73.2736L90.2093 71.3809ZM97.0685 84.8969L91.5499 74.0135L86.0488 76.0157L90.1921 87.3997L97.0685 84.8969ZM83.2346 77.0399L70.1327 81.8085L74.2743 93.1877L87.3762 88.4191L83.2346 77.0399ZM67.3185 82.8328L54.662 87.4393L58.8035 98.8184L71.4601 94.2119L67.3185 82.8328ZM51.8527 88.4618L39.1962 93.0683L43.3378 104.447L55.9943 99.8409L51.8527 88.4618ZM36.382 94.0926L23.2801 98.8612L27.4217 110.24L40.5236 105.472L36.382 94.0926ZM24.6093 111.269L20.9754 101.285L20.5128 112.76L24.6093 111.269ZM103.313 97.2121L98.4011 87.5379L91.1919 90.1618L94.9558 100.503L103.313 97.2121ZM92.1857 101.634L88.3951 91.2186L75.2932 95.9872L79.2085 106.745L92.1857 101.634ZM76.4193 107.838L72.4772 97.0065L59.8207 101.613L63.8821 112.772L76.4193 107.838ZM61.0982 113.879L57.0083 102.642L44.3567 107.247L48.5659 118.812L61.0982 113.879ZM45.7803 119.915L41.546 108.281L28.4393 113.051L32.7982 125.028L45.7803 119.915ZM30.0138 126.119L25.6282 114.069L20.406 115.97L19.8388 130.127L30.0138 126.119Z" fill="white"/>
</g>
<mask id="mask1_1_316" style="mask-type:luminance" maskUnits="userSpaceOnUse" x="0" y="20" width="105" height="72">
<path d="M12.8443 91.3274L104.65 65.2929L91.8054 20L-1.8437e-05 46.0345L12.8443 91.3274Z" fill="white"/>
</mask>
<g mask="url(#mask1_1_316)">
<path d="M4.99374 45.5818C6.72944 45.0896 8.4667 45.7779 8.95638 47.1494L9.04088 47.3927C14.7361 66.9293 33.7081 68.1395 54.7517 62.1719C75.8167 56.1982 91.3242 45.1915 85.8895 25.5624L85.8418 25.3398C85.5403 23.9211 86.6576 22.4233 88.3933 21.9311C90.1146 21.4429 91.8519 22.1312 92.3559 23.4987L92.4339 23.719C98.5657 46.2706 83.5851 70.2845 59.0272 77.2487C34.3329 84.2516 8.97157 71.6594 2.45111 48.9942C2.1479 47.5698 3.26522 46.072 4.99374 45.5818Z" fill="#FF8600"/>
</g>
</svg>
