<svg xmlns="http://www.w3.org/2000/svg" xmlns:xlink="http://www.w3.org/1999/xlink" width="500" zoomAndPan="magnify" viewBox="0 0 375 374.999991" height="500" preserveAspectRatio="xMidYMid meet" version="1.0"><defs><g/><clipPath id="bfc56dc4ed"><path d="M 135.230469 104 L 239.480469 104 L 239.480469 218.746094 L 135.230469 218.746094 Z M 135.230469 104 " clip-rule="nonzero"/></clipPath><clipPath id="20f61ead00"><path d="M 162 88.246094 L 212 88.246094 L 212 119 L 162 119 Z M 162 88.246094 " clip-rule="nonzero"/></clipPath><clipPath id="9235c5c8cd"><path d="M 135.230469 120.828125 L 239.480469 120.828125 L 239.480469 218.328125 L 135.230469 218.328125 Z M 135.230469 120.828125 " clip-rule="nonzero"/></clipPath></defs><g clip-path="url(#bfc56dc4ed)"><path fill="#ff8600" d="M 236.050781 104.695312 L 210.035156 104.695312 C 211.191406 107.496094 211.980469 110.523438 212.277344 113.722656 C 213.484375 114.453125 214.296875 115.777344 214.296875 117.292969 C 214.296875 119.042969 213.222656 120.535156 211.703125 121.15625 C 211.214844 121.355469 210.683594 121.46875 210.125 121.46875 C 209.441406 121.46875 208.800781 121.300781 208.226562 121.007812 C 206.882812 120.316406 205.960938 118.914062 205.960938 117.296875 C 205.960938 116.007812 206.546875 114.867188 207.460938 114.101562 C 207.136719 110.695312 206.175781 107.515625 204.746094 104.695312 L 169.839844 104.695312 C 168.40625 107.515625 167.449219 110.699219 167.125 114.109375 C 168.035156 114.871094 168.621094 116.011719 168.621094 117.296875 C 168.621094 118.914062 167.699219 120.316406 166.351562 121.007812 C 165.78125 121.300781 165.136719 121.46875 164.453125 121.46875 C 163.894531 121.46875 163.367188 121.355469 162.878906 121.15625 C 161.355469 120.535156 160.285156 119.042969 160.285156 117.292969 C 160.285156 115.773438 161.097656 114.445312 162.3125 113.714844 C 162.605469 110.519531 163.394531 107.492188 164.550781 104.695312 L 138.515625 104.695312 L 135.179688 211.496094 C 135.179688 215.1875 138.167969 218.183594 141.859375 218.183594 L 232.710938 218.183594 C 236.402344 218.183594 239.390625 215.1875 239.390625 211.496094 Z M 236.050781 104.695312 " fill-opacity="1" fill-rule="nonzero"/></g><g clip-path="url(#20f61ead00)"><path fill="#ff8600" d="M 164.582031 118.394531 C 165.527344 118.394531 166.304688 117.652344 166.355469 116.703125 L 166.363281 116.535156 C 166.441406 103.242188 175.832031 92.429688 187.292969 92.429688 C 198.765625 92.429688 208.15625 103.253906 208.222656 116.558594 L 208.230469 116.707031 C 208.28125 117.652344 209.058594 118.394531 210.003906 118.394531 C 210.941406 118.394531 211.71875 117.652344 211.777344 116.703125 L 211.785156 116.550781 C 211.652344 101.285156 200.667969 88.863281 187.292969 88.863281 C 173.84375 88.863281 162.859375 101.296875 162.8125 116.703125 C 162.863281 117.652344 163.640625 118.394531 164.582031 118.394531 Z M 164.582031 118.394531 " fill-opacity="1" fill-rule="nonzero"/></g><g clip-path="url(#9235c5c8cd)"><path fill="#ffffff" d="M 219.109375 122.773438 C 219.566406 121.648438 220.664062 120.839844 221.964844 120.839844 C 225.859375 120.839844 232.539062 120.839844 236.433594 120.839844 C 238.117188 120.839844 239.484375 122.183594 239.484375 123.835938 C 239.484375 125.484375 238.117188 126.828125 236.433594 126.828125 L 224.027344 126.828125 L 193.035156 203.886719 L 193.027344 203.902344 C 192.570312 205.011719 191.476562 205.789062 190.191406 205.789062 L 182.394531 205.789062 C 185.722656 205.988281 188.347656 208.722656 188.347656 212.042969 C 188.347656 215.503906 185.484375 218.3125 181.957031 218.3125 C 178.429688 218.3125 175.566406 215.503906 175.566406 212.042969 C 175.566406 208.730469 178.195312 206.011719 181.519531 205.789062 L 147.640625 205.789062 C 150.964844 205.988281 153.59375 208.722656 153.59375 212.042969 C 153.59375 215.503906 150.730469 218.3125 147.203125 218.3125 C 143.675781 218.3125 140.8125 215.503906 140.8125 212.042969 C 140.8125 208.730469 143.445312 206.011719 146.765625 205.789062 L 141.144531 205.789062 C 139.460938 205.789062 138.09375 204.445312 138.09375 202.796875 C 138.09375 201.148438 139.460938 199.804688 141.144531 199.804688 L 188.125 199.804688 L 192.828125 188.34375 L 142.542969 184.21875 C 141.027344 184.214844 139.707031 183.097656 139.523438 181.578125 C 138.628906 174.195312 136.316406 155.070312 135.429688 147.683594 C 135.230469 146.046875 136.429688 144.554688 138.09375 144.363281 C 138.355469 144.335938 138.550781 144.335938 138.792969 144.363281 L 211.636719 142.460938 Z M 147.210938 208.851562 C 149.007812 208.851562 150.457031 210.28125 150.457031 212.042969 C 150.457031 213.796875 149 215.226562 147.210938 215.226562 C 145.414062 215.226562 143.964844 213.796875 143.964844 212.042969 C 143.964844 210.285156 145.421875 208.851562 147.210938 208.851562 Z M 181.964844 208.851562 C 183.757812 208.851562 185.214844 210.28125 185.214844 212.042969 C 185.214844 213.796875 183.757812 215.226562 181.964844 215.226562 C 180.175781 215.226562 178.71875 213.796875 178.71875 212.042969 C 178.71875 210.285156 180.175781 208.851562 181.964844 208.851562 Z M 188.234375 181.964844 L 195.214844 182.550781 L 198.722656 174.011719 L 198.722656 171.851562 L 188.261719 171.851562 L 188.261719 181.980469 Z M 175.914062 171.832031 L 175.914062 180.953125 L 186.015625 181.777344 L 186.015625 171.832031 Z M 163.570312 171.832031 L 163.570312 179.941406 L 173.667969 180.773438 L 173.667969 171.835938 Z M 150.863281 171.832031 L 150.863281 178.898438 L 161.320312 179.757812 L 161.320312 171.835938 Z M 144.496094 171.832031 L 145.296875 178.441406 L 148.625 178.703125 L 148.625 171.824219 Z M 143.128906 160.546875 L 144.226562 169.632812 L 148.617188 169.632812 L 148.617188 160.546875 Z M 150.863281 169.632812 L 161.320312 169.632812 L 161.320312 160.550781 L 150.863281 160.550781 Z M 163.566406 169.632812 L 173.667969 169.632812 L 173.667969 160.550781 L 163.566406 160.550781 Z M 175.910156 169.632812 L 186.011719 169.632812 L 186.011719 160.550781 L 175.910156 160.550781 Z M 188.257812 169.632812 L 198.714844 169.632812 L 198.714844 160.550781 L 188.257812 160.550781 Z M 200.960938 160.546875 L 200.960938 168.515625 L 204.230469 160.546875 Z M 141.886719 150.265625 L 142.867188 158.34375 L 148.621094 158.34375 L 148.621094 150.089844 Z M 150.863281 150.003906 L 150.863281 158.316406 L 161.320312 158.316406 L 161.320312 149.730469 Z M 163.566406 149.675781 L 163.566406 158.320312 L 173.667969 158.320312 L 173.667969 149.414062 Z M 175.914062 149.347656 L 175.914062 158.316406 L 186.011719 158.316406 L 186.011719 149.085938 Z M 188.257812 149.023438 L 188.257812 158.308594 L 198.71875 158.308594 L 198.71875 148.75 Z M 200.960938 148.695312 L 200.960938 158.3125 L 205.128906 158.3125 L 209.160156 148.480469 Z M 200.960938 148.695312 " fill-opacity="1" fill-rule="evenodd"/></g><g fill="#000000" fill-opacity="1"><g transform="translate(88.753007, 258.706653)"><g><path d="M 16.578125 -15.75 L 16.578125 -23.109375 C 16.578125 -23.628906 16.769531 -24.082031 17.15625 -24.46875 C 17.550781 -24.863281 18.007812 -25.0625 18.53125 -25.0625 L 21.484375 -25.0625 C 22.015625 -25.0625 22.472656 -24.863281 22.859375 -24.46875 C 23.253906 -24.082031 23.453125 -23.628906 23.453125 -23.109375 L 23.453125 -1.953125 C 23.453125 -1.429688 23.253906 -0.972656 22.859375 -0.578125 C 22.472656 -0.191406 22.015625 0 21.484375 0 L 18.53125 0 C 18.007812 0 17.550781 -0.191406 17.15625 -0.578125 C 16.769531 -0.972656 16.578125 -1.429688 16.578125 -1.953125 L 16.578125 -9.984375 C 16.578125 -10.191406 16.472656 -10.296875 16.265625 -10.296875 L 9.6875 -10.296875 C 9.476562 -10.296875 9.375 -10.191406 9.375 -9.984375 L 9.375 -1.953125 C 9.375 -1.429688 9.175781 -0.972656 8.78125 -0.578125 C 8.394531 -0.191406 7.941406 0 7.421875 0 L 4.46875 0 C 3.9375 0 3.472656 -0.191406 3.078125 -0.578125 C 2.691406 -0.972656 2.5 -1.429688 2.5 -1.953125 L 2.5 -23.109375 C 2.5 -23.628906 2.691406 -24.082031 3.078125 -24.46875 C 3.472656 -24.863281 3.9375 -25.0625 4.46875 -25.0625 L 7.421875 -25.0625 C 7.941406 -25.0625 8.394531 -24.863281 8.78125 -24.46875 C 9.175781 -24.082031 9.375 -23.628906 9.375 -23.109375 L 9.375 -15.75 C 9.375 -15.550781 9.476562 -15.453125 9.6875 -15.453125 L 16.265625 -15.453125 C 16.472656 -15.453125 16.578125 -15.550781 16.578125 -15.75 Z M 16.578125 -15.75 "/></g></g></g><g fill="#000000" fill-opacity="1"><g transform="translate(114.667796, 258.706653)"><g><path d="M 12.125 -7.375 L 12.125 -7.59375 C 12.125 -7.789062 12.019531 -7.890625 11.8125 -7.890625 L 11.09375 -7.890625 C 9.78125 -7.890625 8.789062 -7.703125 8.125 -7.328125 C 7.46875 -6.953125 7.140625 -6.453125 7.140625 -5.828125 C 7.140625 -4.804688 7.710938 -4.296875 8.859375 -4.296875 C 9.835938 -4.296875 10.625 -4.566406 11.21875 -5.109375 C 11.820312 -5.660156 12.125 -6.414062 12.125 -7.375 Z M 18.640625 -10.984375 L 18.640625 -4.8125 C 18.640625 -3.6875 18.695312 -2.722656 18.8125 -1.921875 C 18.882812 -1.421875 18.757812 -0.972656 18.4375 -0.578125 C 18.113281 -0.191406 17.703125 0 17.203125 0 L 14.9375 0 C 14.382812 0 13.890625 -0.175781 13.453125 -0.53125 C 13.015625 -0.882812 12.765625 -1.335938 12.703125 -1.890625 C 12.679688 -1.929688 12.660156 -2.007812 12.640625 -2.125 C 12.628906 -2.238281 12.625 -2.320312 12.625 -2.375 C 12.625 -2.394531 12.613281 -2.40625 12.59375 -2.40625 C 12.550781 -2.40625 12.53125 -2.394531 12.53125 -2.375 C 11.914062 -1.550781 11.113281 -0.890625 10.125 -0.390625 C 9.144531 0.0976562 8.148438 0.34375 7.140625 0.34375 C 5.378906 0.34375 3.960938 -0.140625 2.890625 -1.109375 C 1.828125 -2.085938 1.296875 -3.4375 1.296875 -5.15625 C 1.296875 -7.113281 2.132812 -8.6875 3.8125 -9.875 C 5.5 -11.070312 7.925781 -11.671875 11.09375 -11.671875 L 11.8125 -11.671875 C 12.019531 -11.671875 12.125 -11.765625 12.125 -11.953125 C 12.09375 -12.609375 11.921875 -13.066406 11.609375 -13.328125 C 11.304688 -13.597656 10.789062 -13.734375 10.0625 -13.734375 C 8.25 -13.734375 6.507812 -13.457031 4.84375 -12.90625 C 4.363281 -12.75 3.898438 -12.789062 3.453125 -13.03125 C 3.003906 -13.269531 2.734375 -13.628906 2.640625 -14.109375 L 2.546875 -14.734375 C 2.429688 -15.296875 2.515625 -15.820312 2.796875 -16.3125 C 3.085938 -16.8125 3.492188 -17.140625 4.015625 -17.296875 C 6.054688 -17.890625 8.1875 -18.1875 10.40625 -18.1875 C 13.375 -18.1875 15.488281 -17.628906 16.75 -16.515625 C 18.007812 -15.410156 18.640625 -13.566406 18.640625 -10.984375 Z M 18.640625 -10.984375 "/></g></g></g><g fill="#000000" fill-opacity="1"><g transform="translate(135.296651, 258.706653)"><g><path d="M 11.609375 -4.640625 C 12.453125 -4.640625 13.144531 -5.007812 13.6875 -5.75 C 14.238281 -6.488281 14.515625 -7.546875 14.515625 -8.921875 C 14.515625 -10.335938 14.253906 -11.40625 13.734375 -12.125 C 13.222656 -12.851562 12.515625 -13.21875 11.609375 -13.21875 C 10.710938 -13.21875 10 -12.851562 9.46875 -12.125 C 8.945312 -11.40625 8.6875 -10.394531 8.6875 -9.09375 L 8.6875 -8.75 C 8.6875 -7.425781 8.945312 -6.410156 9.46875 -5.703125 C 10 -4.992188 10.710938 -4.640625 11.609375 -4.640625 Z M 13.65625 -18.1875 C 15.8125 -18.1875 17.523438 -17.378906 18.796875 -15.765625 C 20.066406 -14.160156 20.703125 -11.878906 20.703125 -8.921875 C 20.703125 -6.035156 20.039062 -3.769531 18.71875 -2.125 C 17.40625 -0.476562 15.71875 0.34375 13.65625 0.34375 C 11.6875 0.34375 10.0625 -0.445312 8.78125 -2.03125 C 8.78125 -2.050781 8.757812 -2.0625 8.71875 -2.0625 C 8.695312 -2.0625 8.6875 -2.050781 8.6875 -2.03125 L 8.6875 5.59375 C 8.6875 6.125 8.488281 6.582031 8.09375 6.96875 C 7.707031 7.351562 7.253906 7.546875 6.734375 7.546875 L 4.125 7.546875 C 3.59375 7.546875 3.128906 7.351562 2.734375 6.96875 C 2.347656 6.582031 2.15625 6.125 2.15625 5.59375 L 2.15625 -15.890625 C 2.15625 -16.421875 2.347656 -16.878906 2.734375 -17.265625 C 3.128906 -17.648438 3.59375 -17.84375 4.125 -17.84375 L 6.21875 -17.84375 C 6.757812 -17.84375 7.222656 -17.65625 7.609375 -17.28125 C 8.003906 -16.90625 8.222656 -16.441406 8.265625 -15.890625 L 8.3125 -15.484375 C 8.3125 -15.460938 8.320312 -15.453125 8.34375 -15.453125 C 8.363281 -15.453125 8.382812 -15.460938 8.40625 -15.484375 C 9.914062 -17.285156 11.664062 -18.1875 13.65625 -18.1875 Z M 13.65625 -18.1875 "/></g></g></g><g fill="#000000" fill-opacity="1"><g transform="translate(157.092541, 258.706653)"><g><path d="M 11.609375 -4.640625 C 12.453125 -4.640625 13.144531 -5.007812 13.6875 -5.75 C 14.238281 -6.488281 14.515625 -7.546875 14.515625 -8.921875 C 14.515625 -10.335938 14.253906 -11.40625 13.734375 -12.125 C 13.222656 -12.851562 12.515625 -13.21875 11.609375 -13.21875 C 10.710938 -13.21875 10 -12.851562 9.46875 -12.125 C 8.945312 -11.40625 8.6875 -10.394531 8.6875 -9.09375 L 8.6875 -8.75 C 8.6875 -7.425781 8.945312 -6.410156 9.46875 -5.703125 C 10 -4.992188 10.710938 -4.640625 11.609375 -4.640625 Z M 13.65625 -18.1875 C 15.8125 -18.1875 17.523438 -17.378906 18.796875 -15.765625 C 20.066406 -14.160156 20.703125 -11.878906 20.703125 -8.921875 C 20.703125 -6.035156 20.039062 -3.769531 18.71875 -2.125 C 17.40625 -0.476562 15.71875 0.34375 13.65625 0.34375 C 11.6875 0.34375 10.0625 -0.445312 8.78125 -2.03125 C 8.78125 -2.050781 8.757812 -2.0625 8.71875 -2.0625 C 8.695312 -2.0625 8.6875 -2.050781 8.6875 -2.03125 L 8.6875 5.59375 C 8.6875 6.125 8.488281 6.582031 8.09375 6.96875 C 7.707031 7.351562 7.253906 7.546875 6.734375 7.546875 L 4.125 7.546875 C 3.59375 7.546875 3.128906 7.351562 2.734375 6.96875 C 2.347656 6.582031 2.15625 6.125 2.15625 5.59375 L 2.15625 -15.890625 C 2.15625 -16.421875 2.347656 -16.878906 2.734375 -17.265625 C 3.128906 -17.648438 3.59375 -17.84375 4.125 -17.84375 L 6.21875 -17.84375 C 6.757812 -17.84375 7.222656 -17.65625 7.609375 -17.28125 C 8.003906 -16.90625 8.222656 -16.441406 8.265625 -15.890625 L 8.3125 -15.484375 C 8.3125 -15.460938 8.320312 -15.453125 8.34375 -15.453125 C 8.363281 -15.453125 8.382812 -15.460938 8.40625 -15.484375 C 9.914062 -17.285156 11.664062 -18.1875 13.65625 -18.1875 Z M 13.65625 -18.1875 "/></g></g></g><g fill="#000000" fill-opacity="1"><g transform="translate(178.88843, 258.706653)"><g><path d="M 10.03125 -5.875 L 12.734375 -15.96875 C 12.890625 -16.507812 13.191406 -16.957031 13.640625 -17.3125 C 14.085938 -17.664062 14.597656 -17.84375 15.171875 -17.84375 L 18.15625 -17.84375 C 18.632812 -17.84375 19.003906 -17.65625 19.265625 -17.28125 C 19.535156 -16.90625 19.59375 -16.488281 19.4375 -16.03125 L 11.5 5.734375 C 11.289062 6.285156 10.945312 6.722656 10.46875 7.046875 C 9.988281 7.378906 9.460938 7.546875 8.890625 7.546875 L 5.90625 7.546875 C 5.445312 7.546875 5.082031 7.359375 4.8125 6.984375 C 4.550781 6.609375 4.515625 6.203125 4.703125 5.765625 L 6.9375 0.28125 C 7 0.09375 7 -0.09375 6.9375 -0.28125 L 0.890625 -16.03125 C 0.734375 -16.46875 0.785156 -16.878906 1.046875 -17.265625 C 1.304688 -17.648438 1.664062 -17.84375 2.125 -17.84375 L 5.453125 -17.84375 C 6.023438 -17.84375 6.53125 -17.664062 6.96875 -17.3125 C 7.40625 -16.957031 7.679688 -16.507812 7.796875 -15.96875 L 9.921875 -5.875 C 9.921875 -5.84375 9.929688 -5.828125 9.953125 -5.828125 C 10.003906 -5.828125 10.03125 -5.84375 10.03125 -5.875 Z M 10.03125 -5.875 "/></g></g></g><g fill="#000000" fill-opacity="1"><g transform="translate(199.174043, 258.706653)"><g><path d="M 10.921875 -15.96875 C 14.515625 -15 17.039062 -13.84375 18.5 -12.5 C 19.96875 -11.164062 20.703125 -9.457031 20.703125 -7.375 C 20.703125 -4.863281 19.832031 -2.945312 18.09375 -1.625 C 16.351562 -0.3125 13.734375 0.34375 10.234375 0.34375 C 7.804688 0.34375 5.4375 -0.191406 3.125 -1.265625 C 2.625 -1.492188 2.273438 -1.878906 2.078125 -2.421875 C 1.878906 -2.960938 1.863281 -3.515625 2.03125 -4.078125 L 2.46875 -5.703125 C 2.601562 -6.160156 2.898438 -6.472656 3.359375 -6.640625 C 3.816406 -6.816406 4.265625 -6.789062 4.703125 -6.5625 C 6.804688 -5.507812 8.765625 -4.984375 10.578125 -4.984375 C 12.628906 -4.984375 13.65625 -5.722656 13.65625 -7.203125 C 13.65625 -8.171875 12.742188 -8.914062 10.921875 -9.4375 C 7.578125 -10.394531 5.191406 -11.550781 3.765625 -12.90625 C 2.347656 -14.257812 1.640625 -15.960938 1.640625 -18.015625 C 1.640625 -20.285156 2.507812 -22.082031 4.25 -23.40625 C 5.988281 -24.738281 8.441406 -25.40625 11.609375 -25.40625 C 14.003906 -25.40625 16.253906 -25.070312 18.359375 -24.40625 C 18.890625 -24.25 19.285156 -23.910156 19.546875 -23.390625 C 19.804688 -22.878906 19.878906 -22.347656 19.765625 -21.796875 L 19.390625 -20.25 C 19.304688 -19.769531 19.035156 -19.414062 18.578125 -19.1875 C 18.117188 -18.957031 17.648438 -18.9375 17.171875 -19.125 C 15.398438 -19.757812 13.660156 -20.078125 11.953125 -20.078125 C 10.867188 -20.078125 10.050781 -19.890625 9.5 -19.515625 C 8.957031 -19.140625 8.6875 -18.640625 8.6875 -18.015625 C 8.6875 -17.054688 9.429688 -16.375 10.921875 -15.96875 Z M 10.921875 -15.96875 "/></g></g></g><g fill="#000000" fill-opacity="1"><g transform="translate(221.48479, 258.706653)"><g><path d="M 13.828125 -18.1875 C 16.097656 -18.1875 17.722656 -17.550781 18.703125 -16.28125 C 19.691406 -15.019531 20.1875 -12.796875 20.1875 -9.609375 L 20.1875 -1.953125 C 20.1875 -1.429688 19.988281 -0.972656 19.59375 -0.578125 C 19.207031 -0.191406 18.753906 0 18.234375 0 L 15.6875 0 C 15.164062 0 14.707031 -0.191406 14.3125 -0.578125 C 13.925781 -0.972656 13.734375 -1.429688 13.734375 -1.953125 L 13.734375 -8.921875 C 13.734375 -10.640625 13.578125 -11.785156 13.265625 -12.359375 C 12.953125 -12.929688 12.398438 -13.21875 11.609375 -13.21875 C 10.890625 -13.21875 10.25 -12.828125 9.6875 -12.046875 C 9.132812 -11.265625 8.859375 -10.335938 8.859375 -9.265625 L 8.859375 -1.953125 C 8.859375 -1.429688 8.660156 -0.972656 8.265625 -0.578125 C 7.878906 -0.191406 7.425781 0 6.90625 0 L 4.296875 0 C 3.765625 0 3.300781 -0.191406 2.90625 -0.578125 C 2.519531 -0.972656 2.328125 -1.429688 2.328125 -1.953125 L 2.328125 -23.796875 C 2.328125 -24.316406 2.519531 -24.769531 2.90625 -25.15625 C 3.300781 -25.550781 3.765625 -25.75 4.296875 -25.75 L 6.90625 -25.75 C 7.425781 -25.75 7.878906 -25.550781 8.265625 -25.15625 C 8.660156 -24.769531 8.859375 -24.316406 8.859375 -23.796875 L 8.859375 -15.828125 C 8.859375 -15.804688 8.867188 -15.796875 8.890625 -15.796875 C 8.929688 -15.796875 8.953125 -15.804688 8.953125 -15.828125 C 9.554688 -16.554688 10.289062 -17.128906 11.15625 -17.546875 C 12.03125 -17.972656 12.921875 -18.1875 13.828125 -18.1875 Z M 13.828125 -18.1875 "/></g></g></g><g fill="#000000" fill-opacity="1"><g transform="translate(243.62391, 258.706653)"><g><path d="M 8.09375 -5.390625 C 8.601562 -4.679688 9.375 -4.328125 10.40625 -4.328125 C 11.4375 -4.328125 12.203125 -4.679688 12.703125 -5.390625 C 13.203125 -6.097656 13.453125 -7.273438 13.453125 -8.921875 C 13.453125 -10.566406 13.203125 -11.742188 12.703125 -12.453125 C 12.203125 -13.171875 11.4375 -13.53125 10.40625 -13.53125 C 9.375 -13.53125 8.601562 -13.171875 8.09375 -12.453125 C 7.59375 -11.742188 7.34375 -10.566406 7.34375 -8.921875 C 7.34375 -7.273438 7.59375 -6.097656 8.09375 -5.390625 Z M 3.4375 -15.71875 C 5.082031 -17.363281 7.40625 -18.1875 10.40625 -18.1875 C 13.40625 -18.1875 15.726562 -17.363281 17.375 -15.71875 C 19.019531 -14.070312 19.84375 -11.804688 19.84375 -8.921875 C 19.84375 -6.035156 19.019531 -3.769531 17.375 -2.125 C 15.726562 -0.476562 13.40625 0.34375 10.40625 0.34375 C 7.40625 0.34375 5.082031 -0.476562 3.4375 -2.125 C 1.789062 -3.769531 0.96875 -6.035156 0.96875 -8.921875 C 0.96875 -11.804688 1.789062 -14.070312 3.4375 -15.71875 Z M 3.4375 -15.71875 "/></g></g></g><g fill="#000000" fill-opacity="1"><g transform="translate(264.424392, 258.706653)"><g><path d="M 11.609375 -4.640625 C 12.453125 -4.640625 13.144531 -5.007812 13.6875 -5.75 C 14.238281 -6.488281 14.515625 -7.546875 14.515625 -8.921875 C 14.515625 -10.335938 14.253906 -11.40625 13.734375 -12.125 C 13.222656 -12.851562 12.515625 -13.21875 11.609375 -13.21875 C 10.710938 -13.21875 10 -12.851562 9.46875 -12.125 C 8.945312 -11.40625 8.6875 -10.394531 8.6875 -9.09375 L 8.6875 -8.75 C 8.6875 -7.425781 8.945312 -6.410156 9.46875 -5.703125 C 10 -4.992188 10.710938 -4.640625 11.609375 -4.640625 Z M 13.65625 -18.1875 C 15.8125 -18.1875 17.523438 -17.378906 18.796875 -15.765625 C 20.066406 -14.160156 20.703125 -11.878906 20.703125 -8.921875 C 20.703125 -6.035156 20.039062 -3.769531 18.71875 -2.125 C 17.40625 -0.476562 15.71875 0.34375 13.65625 0.34375 C 11.6875 0.34375 10.0625 -0.445312 8.78125 -2.03125 C 8.78125 -2.050781 8.757812 -2.0625 8.71875 -2.0625 C 8.695312 -2.0625 8.6875 -2.050781 8.6875 -2.03125 L 8.6875 5.59375 C 8.6875 6.125 8.488281 6.582031 8.09375 6.96875 C 7.707031 7.351562 7.253906 7.546875 6.734375 7.546875 L 4.125 7.546875 C 3.59375 7.546875 3.128906 7.351562 2.734375 6.96875 C 2.347656 6.582031 2.15625 6.125 2.15625 5.59375 L 2.15625 -15.890625 C 2.15625 -16.421875 2.347656 -16.878906 2.734375 -17.265625 C 3.128906 -17.648438 3.59375 -17.84375 4.125 -17.84375 L 6.21875 -17.84375 C 6.757812 -17.84375 7.222656 -17.65625 7.609375 -17.28125 C 8.003906 -16.90625 8.222656 -16.441406 8.265625 -15.890625 L 8.3125 -15.484375 C 8.3125 -15.460938 8.320312 -15.453125 8.34375 -15.453125 C 8.363281 -15.453125 8.382812 -15.460938 8.40625 -15.484375 C 9.914062 -17.285156 11.664062 -18.1875 13.65625 -18.1875 Z M 13.65625 -18.1875 "/></g></g></g><g fill="#000000" fill-opacity="1"><g transform="translate(131.193392, 284.079814)"><g><path d="M 0.578125 -4.03125 C 0.578125 -4.613281 0.660156 -5.15625 0.828125 -5.65625 C 1.003906 -6.164062 1.253906 -6.601562 1.578125 -6.96875 C 1.898438 -7.34375 2.296875 -7.632812 2.765625 -7.84375 C 3.234375 -8.0625 3.765625 -8.171875 4.359375 -8.171875 C 4.941406 -8.171875 5.46875 -8.0625 5.9375 -7.84375 C 6.414062 -7.625 6.816406 -7.328125 7.140625 -6.953125 C 7.460938 -6.578125 7.710938 -6.140625 7.890625 -5.640625 C 8.066406 -5.140625 8.15625 -4.601562 8.15625 -4.03125 C 8.15625 -3.457031 8.066406 -2.914062 7.890625 -2.40625 C 7.722656 -1.90625 7.472656 -1.460938 7.140625 -1.078125 C 6.816406 -0.703125 6.421875 -0.40625 5.953125 -0.1875 C 5.484375 0.03125 4.953125 0.140625 4.359375 0.140625 C 3.765625 0.140625 3.234375 0.03125 2.765625 -0.1875 C 2.296875 -0.40625 1.898438 -0.703125 1.578125 -1.078125 C 1.253906 -1.460938 1.003906 -1.90625 0.828125 -2.40625 C 0.660156 -2.914062 0.578125 -3.457031 0.578125 -4.03125 Z M 1.6875 -4.03125 C 1.6875 -3.613281 1.742188 -3.207031 1.859375 -2.8125 C 1.984375 -2.425781 2.160156 -2.082031 2.390625 -1.78125 C 2.617188 -1.488281 2.898438 -1.25 3.234375 -1.0625 C 3.566406 -0.882812 3.941406 -0.796875 4.359375 -0.796875 C 4.796875 -0.796875 5.179688 -0.878906 5.515625 -1.046875 C 5.847656 -1.210938 6.128906 -1.4375 6.359375 -1.71875 C 6.585938 -2.007812 6.757812 -2.351562 6.875 -2.75 C 6.988281 -3.144531 7.046875 -3.570312 7.046875 -4.03125 C 7.046875 -4.4375 6.984375 -4.832031 6.859375 -5.21875 C 6.734375 -5.601562 6.554688 -5.941406 6.328125 -6.234375 C 6.097656 -6.535156 5.816406 -6.773438 5.484375 -6.953125 C 5.148438 -7.128906 4.773438 -7.21875 4.359375 -7.21875 C 3.941406 -7.21875 3.566406 -7.132812 3.234375 -6.96875 C 2.898438 -6.8125 2.617188 -6.585938 2.390625 -6.296875 C 2.160156 -6.015625 1.984375 -5.675781 1.859375 -5.28125 C 1.742188 -4.894531 1.6875 -4.476562 1.6875 -4.03125 Z M 1.6875 -4.03125 "/></g></g></g><g fill="#000000" fill-opacity="1"><g transform="translate(143.798511, 284.079814)"><g><path d="M 2.0625 -6.625 L 2.0625 0 L 1.03125 0 L 1.03125 -8.03125 L 2.484375 -8.03125 L 6.015625 -1.359375 L 6.015625 -8.03125 L 7.046875 -8.03125 L 7.046875 0 L 5.625 0 Z M 2.0625 -6.625 "/></g></g></g><g fill="#000000" fill-opacity="1"><g transform="translate(155.761444, 284.079814)"><g><path d="M 5.796875 0 L 1.03125 0 L 1.03125 -8.03125 L 2.125 -8.03125 L 2.125 -0.96875 L 5.796875 -0.96875 Z M 5.796875 0 "/></g></g></g><g fill="#000000" fill-opacity="1"><g transform="translate(165.499658, 284.079814)"><g><path d="M 1.03125 0 L 1.03125 -8.03125 L 2.125 -8.03125 L 2.125 0 Z M 1.03125 0 "/></g></g></g><g fill="#000000" fill-opacity="1"><g transform="translate(172.531518, 284.079814)"><g><path d="M 2.0625 -6.625 L 2.0625 0 L 1.03125 0 L 1.03125 -8.03125 L 2.484375 -8.03125 L 6.015625 -1.359375 L 6.015625 -8.03125 L 7.046875 -8.03125 L 7.046875 0 L 5.625 0 Z M 2.0625 -6.625 "/></g></g></g><g fill="#000000" fill-opacity="1"><g transform="translate(184.494452, 284.079814)"><g><path d="M 1.03125 -8.03125 L 5.84375 -8.03125 L 5.84375 -7.09375 L 2.125 -7.09375 L 2.125 -4.640625 L 5.328125 -4.640625 L 5.328125 -3.734375 L 2.125 -3.734375 L 2.125 -0.9375 L 5.84375 -0.9375 L 5.84375 0 L 1.03125 0 Z M 1.03125 -8.03125 "/></g></g></g><g fill="#000000" fill-opacity="1"><g transform="translate(194.737244, 284.079814)"><g/></g></g><g fill="#000000" fill-opacity="1"><g transform="translate(202.055788, 284.079814)"><g><path d="M 0.890625 -1.59375 C 1.171875 -1.363281 1.484375 -1.175781 1.828125 -1.03125 C 2.171875 -0.882812 2.570312 -0.8125 3.03125 -0.8125 C 3.582031 -0.8125 4.015625 -0.925781 4.328125 -1.15625 C 4.648438 -1.382812 4.8125 -1.695312 4.8125 -2.09375 C 4.8125 -2.25 4.785156 -2.394531 4.734375 -2.53125 C 4.691406 -2.664062 4.601562 -2.796875 4.46875 -2.921875 C 4.34375 -3.054688 4.160156 -3.1875 3.921875 -3.3125 C 3.679688 -3.4375 3.367188 -3.570312 2.984375 -3.71875 C 2.566406 -3.875 2.210938 -4.03125 1.921875 -4.1875 C 1.640625 -4.34375 1.410156 -4.515625 1.234375 -4.703125 C 1.054688 -4.890625 0.929688 -5.097656 0.859375 -5.328125 C 0.785156 -5.554688 0.75 -5.8125 0.75 -6.09375 C 0.75 -6.382812 0.804688 -6.65625 0.921875 -6.90625 C 1.035156 -7.15625 1.207031 -7.375 1.4375 -7.5625 C 1.675781 -7.75 1.96875 -7.894531 2.3125 -8 C 2.65625 -8.113281 3.039062 -8.171875 3.46875 -8.171875 C 3.945312 -8.171875 4.375 -8.117188 4.75 -8.015625 C 5.125 -7.921875 5.492188 -7.785156 5.859375 -7.609375 L 5.453125 -6.6875 C 5.191406 -6.84375 4.890625 -6.96875 4.546875 -7.0625 C 4.203125 -7.164062 3.835938 -7.21875 3.453125 -7.21875 C 2.941406 -7.21875 2.539062 -7.117188 2.25 -6.921875 C 1.96875 -6.734375 1.828125 -6.476562 1.828125 -6.15625 C 1.828125 -6 1.847656 -5.863281 1.890625 -5.75 C 1.929688 -5.632812 2.015625 -5.519531 2.140625 -5.40625 C 2.265625 -5.289062 2.4375 -5.175781 2.65625 -5.0625 C 2.882812 -4.945312 3.1875 -4.820312 3.5625 -4.6875 C 4.007812 -4.519531 4.382812 -4.347656 4.6875 -4.171875 C 5 -3.992188 5.242188 -3.804688 5.421875 -3.609375 C 5.609375 -3.410156 5.738281 -3.195312 5.8125 -2.96875 C 5.894531 -2.738281 5.9375 -2.488281 5.9375 -2.21875 C 5.9375 -1.84375 5.863281 -1.507812 5.71875 -1.21875 C 5.570312 -0.925781 5.367188 -0.675781 5.109375 -0.46875 C 4.859375 -0.269531 4.550781 -0.117188 4.1875 -0.015625 C 3.832031 0.0859375 3.445312 0.140625 3.03125 0.140625 C 2.46875 0.140625 1.957031 0.0664062 1.5 -0.078125 C 1.039062 -0.234375 0.65625 -0.429688 0.34375 -0.671875 Z M 0.890625 -1.59375 "/></g></g></g><g fill="#000000" fill-opacity="1"><g transform="translate(212.447653, 284.079814)"><g><path d="M 6.078125 -3.65625 L 2.125 -3.65625 L 2.125 0 L 1.03125 0 L 1.03125 -8.03125 L 2.125 -8.03125 L 2.125 -4.59375 L 6.078125 -4.59375 L 6.078125 -8.03125 L 7.171875 -8.03125 L 7.171875 0 L 6.078125 0 Z M 6.078125 -3.65625 "/></g></g></g><g fill="#000000" fill-opacity="1"><g transform="translate(224.525263, 284.079814)"><g><path d="M 0.578125 -4.03125 C 0.578125 -4.613281 0.660156 -5.15625 0.828125 -5.65625 C 1.003906 -6.164062 1.253906 -6.601562 1.578125 -6.96875 C 1.898438 -7.34375 2.296875 -7.632812 2.765625 -7.84375 C 3.234375 -8.0625 3.765625 -8.171875 4.359375 -8.171875 C 4.941406 -8.171875 5.46875 -8.0625 5.9375 -7.84375 C 6.414062 -7.625 6.816406 -7.328125 7.140625 -6.953125 C 7.460938 -6.578125 7.710938 -6.140625 7.890625 -5.640625 C 8.066406 -5.140625 8.15625 -4.601562 8.15625 -4.03125 C 8.15625 -3.457031 8.066406 -2.914062 7.890625 -2.40625 C 7.722656 -1.90625 7.472656 -1.460938 7.140625 -1.078125 C 6.816406 -0.703125 6.421875 -0.40625 5.953125 -0.1875 C 5.484375 0.03125 4.953125 0.140625 4.359375 0.140625 C 3.765625 0.140625 3.234375 0.03125 2.765625 -0.1875 C 2.296875 -0.40625 1.898438 -0.703125 1.578125 -1.078125 C 1.253906 -1.460938 1.003906 -1.90625 0.828125 -2.40625 C 0.660156 -2.914062 0.578125 -3.457031 0.578125 -4.03125 Z M 1.6875 -4.03125 C 1.6875 -3.613281 1.742188 -3.207031 1.859375 -2.8125 C 1.984375 -2.425781 2.160156 -2.082031 2.390625 -1.78125 C 2.617188 -1.488281 2.898438 -1.25 3.234375 -1.0625 C 3.566406 -0.882812 3.941406 -0.796875 4.359375 -0.796875 C 4.796875 -0.796875 5.179688 -0.878906 5.515625 -1.046875 C 5.847656 -1.210938 6.128906 -1.4375 6.359375 -1.71875 C 6.585938 -2.007812 6.757812 -2.351562 6.875 -2.75 C 6.988281 -3.144531 7.046875 -3.570312 7.046875 -4.03125 C 7.046875 -4.4375 6.984375 -4.832031 6.859375 -5.21875 C 6.734375 -5.601562 6.554688 -5.941406 6.328125 -6.234375 C 6.097656 -6.535156 5.816406 -6.773438 5.484375 -6.953125 C 5.148438 -7.128906 4.773438 -7.21875 4.359375 -7.21875 C 3.941406 -7.21875 3.566406 -7.132812 3.234375 -6.96875 C 2.898438 -6.8125 2.617188 -6.585938 2.390625 -6.296875 C 2.160156 -6.015625 1.984375 -5.675781 1.859375 -5.28125 C 1.742188 -4.894531 1.6875 -4.476562 1.6875 -4.03125 Z M 1.6875 -4.03125 "/></g></g></g><g fill="#000000" fill-opacity="1"><g transform="translate(237.130377, 284.079814)"><g><path d="M 1.03125 -8 C 1.351562 -8.039062 1.695312 -8.070312 2.0625 -8.09375 C 2.4375 -8.113281 2.832031 -8.125 3.25 -8.125 C 3.738281 -8.125 4.175781 -8.0625 4.5625 -7.9375 C 4.957031 -7.8125 5.289062 -7.640625 5.5625 -7.421875 C 5.832031 -7.210938 6.035156 -6.957031 6.171875 -6.65625 C 6.304688 -6.351562 6.375 -6.023438 6.375 -5.671875 C 6.375 -5.242188 6.289062 -4.863281 6.125 -4.53125 C 5.96875 -4.195312 5.738281 -3.914062 5.4375 -3.6875 C 5.144531 -3.457031 4.789062 -3.285156 4.375 -3.171875 C 3.96875 -3.054688 3.515625 -3 3.015625 -3 C 2.691406 -3 2.394531 -3.007812 2.125 -3.03125 L 2.125 0 L 1.03125 0 Z M 3.15625 -3.90625 C 3.84375 -3.90625 4.367188 -4.054688 4.734375 -4.359375 C 5.109375 -4.660156 5.296875 -5.066406 5.296875 -5.578125 C 5.296875 -6.078125 5.117188 -6.472656 4.765625 -6.765625 C 4.410156 -7.054688 3.894531 -7.203125 3.21875 -7.203125 C 3.007812 -7.203125 2.8125 -7.195312 2.625 -7.1875 C 2.445312 -7.175781 2.28125 -7.164062 2.125 -7.15625 L 2.125 -3.953125 C 2.25 -3.941406 2.394531 -3.929688 2.5625 -3.921875 C 2.738281 -3.910156 2.9375 -3.90625 3.15625 -3.90625 Z M 3.15625 -3.90625 "/></g></g></g></svg>